<?xml version="1.0" encoding="utf-8"?>
<!-- Generator: Adobe Illustrator 26.3.1, SVG Export Plug-In . SVG Version: 6.00 Build 0)  -->
<svg version="1.1" id="eUtfKsV2qQa1" text-rendering="geometricPrecision" shape-rendering="geometricPrecision"
	 xmlns="http://www.w3.org/2000/svg" xmlns:xlink="http://www.w3.org/1999/xlink" x="0px" y="0px" viewBox="0 0 36 36"
	 style="enable-background:new 0 0 36 36;" xml:space="preserve">
<style type="text/css">
	.st0{fill:url(#SVGID_1_);}
	.st1{fill:url(#SVGID_00000013173228490007977180000000383813358503051139_);}
	.st2{fill:url(#SVGID_00000044157757575380168160000015495794052889051806_);}
	.st3{fill:url(#SVGID_00000074420864654898308610000015285955420098353564_);}
	.st4{fill:url(#SVGID_00000152966532335772146420000017661488730933337014_);}
	.st5{fill:url(#SVGID_00000023960804481260877670000000971657093696476590_);}
	.st6{fill:url(#SVGID_00000181076253420884239110000013468311592674089126_);}
	.st7{fill:url(#SVGID_00000086693619996298171850000016685724726152239744_);}
	.st8{fill:url(#SVGID_00000031900562055079857440000008334728895897512594_);}
	.st9{fill:url(#SVGID_00000145757395677198259370000016842761621321964976_);}
	.st10{fill:url(#SVGID_00000167395495745089460680000009981753408155259032_);}
	.st11{fill:url(#SVGID_00000160910119234361673620000014687490431920175515_);}
	.st12{fill:url(#SVGID_00000107575708134056072150000007714159538814578853_);}
	.st13{fill:url(#SVGID_00000168089016790186446630000004880011395924436411_);}
	.st14{fill:url(#SVGID_00000071557516613539391200000003720722696180083610_);}
	.st15{fill:url(#SVGID_00000175324461664057159250000013684917123203632047_);}
	.st16{fill:url(#SVGID_00000027595031324266265190000009079131866873195951_);}
	.st17{fill:url(#SVGID_00000075138463795410365840000011615530286125579956_);}
	.st18{fill:url(#SVGID_00000049203016747078330120000009044472157401917831_);}
	.st19{fill:url(#SVGID_00000157293920043573206910000004237241228752449727_);}
	.st20{fill:url(#SVGID_00000080923100816313850310000000901931624650054530_);}
	.st21{fill:url(#SVGID_00000134241791673547138410000005651135251455918493_);}
	.st22{fill:url(#SVGID_00000097491796624090140110000014725073516872288952_);}
	.st23{fill:url(#SVGID_00000160153328605367689920000011806634256844764075_);}
	.st24{fill:url(#SVGID_00000165206456215765181680000003163198825521815231_);}
	.st25{fill:url(#SVGID_00000175284319291790241880000013429544011711203997_);}
	.st26{fill:url(#SVGID_00000145041398001152090700000001900753248588628653_);}
	.st27{fill:url(#SVGID_00000014613597940946371020000016935378710368442006_);}
	.st28{fill:url(#SVGID_00000112623264914325822110000015578426780137718204_);}
	.st29{fill:url(#SVGID_00000005252830003534344780000011527852682059817877_);}
	.st30{fill:url(#SVGID_00000067958714570848163300000006841103319529698202_);}
	.st31{fill:url(#SVGID_00000019669607306949819190000018384507776004410253_);}
	.st32{fill:url(#SVGID_00000142872775290301331700000001395863724863566244_);}
	.st33{fill:url(#SVGID_00000067213898493174644390000000723425194618509713_);}
	.st34{fill:url(#SVGID_00000087405120267912241950000010007039274807484858_);}
	.st35{fill:url(#SVGID_00000173846138250774372020000014172564043272349374_);}
	.st36{fill:url(#SVGID_00000039131306144348331660000010757605113857687974_);}
	.st37{fill:#FFFFFF;filter:url(#Adobe_OpacityMaskFilter);}
	.st38{mask:url(#path-2-inside-1_4156_2187_00000168836797725429748870000002373249774375540669_);fill:#1F90FF;}
	.st39{fill:none;stroke:#1F90FF;}
</style>
<g>
	
		<linearGradient id="SVGID_1_" gradientUnits="userSpaceOnUse" x1="22.0466" y1="55.4853" x2="22.0466" y2="44.4853" gradientTransform="matrix(1 0 0 -1 -8.3622 60.8347)">
		<stop  offset="0" style="stop-color:#1F90FF;stop-opacity:0"/>
		<stop  offset="1" style="stop-color:#1F90FF"/>
	</linearGradient>
	<path class="st0" d="M13.7,6.3c0.3,0,0.5-0.2,0.5-0.5c0-0.3-0.2-0.5-0.5-0.5c-0.3,0-0.5,0.2-0.5,0.5C13.2,6.1,13.4,6.3,13.7,6.3z"
		/>
	
		<linearGradient id="SVGID_00000174587237236008647960000014417336511951835551_" gradientUnits="userSpaceOnUse" x1="24.5466" y1="55.4853" x2="24.5466" y2="44.4853" gradientTransform="matrix(1 0 0 -1 -8.3622 60.8347)">
		<stop  offset="0" style="stop-color:#1F90FF;stop-opacity:0"/>
		<stop  offset="1" style="stop-color:#1F90FF"/>
	</linearGradient>
	<path style="fill:url(#SVGID_00000174587237236008647960000014417336511951835551_);" d="M16.2,6.3c0.3,0,0.5-0.2,0.5-0.5
		c0-0.3-0.2-0.5-0.5-0.5c-0.3,0-0.5,0.2-0.5,0.5C15.7,6.1,15.9,6.3,16.2,6.3z"/>
	
		<linearGradient id="SVGID_00000112614460048540218950000005604857324199219613_" gradientUnits="userSpaceOnUse" x1="27.0466" y1="55.4853" x2="27.0466" y2="44.4853" gradientTransform="matrix(1 0 0 -1 -8.3622 60.8347)">
		<stop  offset="0" style="stop-color:#1F90FF;stop-opacity:0"/>
		<stop  offset="1" style="stop-color:#1F90FF"/>
	</linearGradient>
	<path style="fill:url(#SVGID_00000112614460048540218950000005604857324199219613_);" d="M18.7,6.3c0.3,0,0.5-0.2,0.5-0.5
		c0-0.3-0.2-0.5-0.5-0.5c-0.3,0-0.5,0.2-0.5,0.5C18.2,6.1,18.4,6.3,18.7,6.3z"/>
	
		<linearGradient id="SVGID_00000152235376332071747210000001549939612269136284_" gradientUnits="userSpaceOnUse" x1="29.5466" y1="55.4853" x2="29.5466" y2="44.4853" gradientTransform="matrix(1 0 0 -1 -8.3622 60.8347)">
		<stop  offset="0" style="stop-color:#1F90FF;stop-opacity:0"/>
		<stop  offset="1" style="stop-color:#1F90FF"/>
	</linearGradient>
	<path style="fill:url(#SVGID_00000152235376332071747210000001549939612269136284_);" d="M21.2,6.3c0.3,0,0.5-0.2,0.5-0.5
		c0-0.3-0.2-0.5-0.5-0.5c-0.3,0-0.5,0.2-0.5,0.5C20.7,6.1,20.9,6.3,21.2,6.3z"/>
	
		<linearGradient id="SVGID_00000034062081395522202160000017214607540387023287_" gradientUnits="userSpaceOnUse" x1="32.0466" y1="55.4853" x2="32.0466" y2="44.4853" gradientTransform="matrix(1 0 0 -1 -8.3622 60.8347)">
		<stop  offset="0" style="stop-color:#1F90FF;stop-opacity:0"/>
		<stop  offset="1" style="stop-color:#1F90FF"/>
	</linearGradient>
	<path style="fill:url(#SVGID_00000034062081395522202160000017214607540387023287_);" d="M23.7,6.3c0.3,0,0.5-0.2,0.5-0.5
		c0-0.3-0.2-0.5-0.5-0.5c-0.3,0-0.5,0.2-0.5,0.5C23.2,6.1,23.4,6.3,23.7,6.3z"/>
	
		<linearGradient id="SVGID_00000001651375863433372660000012557338147199375273_" gradientUnits="userSpaceOnUse" x1="14.5466" y1="55.4853" x2="14.5466" y2="44.4853" gradientTransform="matrix(1 0 0 -1 -8.3622 60.8347)">
		<stop  offset="0" style="stop-color:#1F90FF;stop-opacity:0"/>
		<stop  offset="1" style="stop-color:#1F90FF"/>
	</linearGradient>
	<path style="fill:url(#SVGID_00000001651375863433372660000012557338147199375273_);" d="M6.2,8.9c0.3,0,0.6-0.3,0.6-0.6
		S6.5,7.8,6.2,7.8S5.6,8,5.6,8.3S5.9,8.9,6.2,8.9z"/>
	
		<linearGradient id="SVGID_00000057841683407464017250000001863994586116527007_" gradientUnits="userSpaceOnUse" x1="17.0466" y1="55.4853" x2="17.0466" y2="44.4853" gradientTransform="matrix(1 0 0 -1 -8.3622 60.8347)">
		<stop  offset="0" style="stop-color:#1F90FF;stop-opacity:0"/>
		<stop  offset="1" style="stop-color:#1F90FF"/>
	</linearGradient>
	<path style="fill:url(#SVGID_00000057841683407464017250000001863994586116527007_);" d="M8.7,8.9c0.3,0,0.6-0.3,0.6-0.6
		S9,7.8,8.7,7.8S8.1,8,8.1,8.3S8.4,8.9,8.7,8.9z"/>
	
		<linearGradient id="SVGID_00000052097802496128294140000015576237876059146649_" gradientUnits="userSpaceOnUse" x1="19.5466" y1="55.4853" x2="19.5466" y2="44.4853" gradientTransform="matrix(1 0 0 -1 -8.3622 60.8347)">
		<stop  offset="0" style="stop-color:#1F90FF;stop-opacity:0"/>
		<stop  offset="1" style="stop-color:#1F90FF"/>
	</linearGradient>
	<path style="fill:url(#SVGID_00000052097802496128294140000015576237876059146649_);" d="M11.2,8.9c0.3,0,0.6-0.3,0.6-0.6
		s-0.3-0.6-0.6-0.6c-0.3,0-0.6,0.3-0.6,0.6S10.9,8.9,11.2,8.9z"/>
	
		<linearGradient id="SVGID_00000053539905568087146930000000503911891547924377_" gradientUnits="userSpaceOnUse" x1="22.0466" y1="55.4853" x2="22.0466" y2="44.4853" gradientTransform="matrix(1 0 0 -1 -8.3622 60.8347)">
		<stop  offset="0" style="stop-color:#1F90FF;stop-opacity:0"/>
		<stop  offset="1" style="stop-color:#1F90FF"/>
	</linearGradient>
	<path style="fill:url(#SVGID_00000053539905568087146930000000503911891547924377_);" d="M13.7,8.9c0.3,0,0.6-0.3,0.6-0.6
		S14,7.8,13.7,7.8c-0.3,0-0.6,0.3-0.6,0.6S13.4,8.9,13.7,8.9z"/>
	
		<linearGradient id="SVGID_00000013883950382731885640000009320915345804729279_" gradientUnits="userSpaceOnUse" x1="24.5466" y1="55.4853" x2="24.5466" y2="44.4853" gradientTransform="matrix(1 0 0 -1 -8.3622 60.8347)">
		<stop  offset="0" style="stop-color:#1F90FF;stop-opacity:0"/>
		<stop  offset="1" style="stop-color:#1F90FF"/>
	</linearGradient>
	<path style="fill:url(#SVGID_00000013883950382731885640000009320915345804729279_);" d="M16.2,8.9c0.3,0,0.6-0.3,0.6-0.6
		s-0.3-0.6-0.6-0.6c-0.3,0-0.6,0.3-0.6,0.6S15.9,8.9,16.2,8.9z"/>
	
		<linearGradient id="SVGID_00000067930571224553925370000007077818121969451447_" gradientUnits="userSpaceOnUse" x1="27.0466" y1="55.4853" x2="27.0466" y2="44.4853" gradientTransform="matrix(1 0 0 -1 -8.3622 60.8347)">
		<stop  offset="0" style="stop-color:#1F90FF;stop-opacity:0"/>
		<stop  offset="1" style="stop-color:#1F90FF"/>
	</linearGradient>
	<path style="fill:url(#SVGID_00000067930571224553925370000007077818121969451447_);" d="M18.7,8.9c0.3,0,0.6-0.3,0.6-0.6
		S19,7.8,18.7,7.8c-0.3,0-0.6,0.3-0.6,0.6S18.4,8.9,18.7,8.9z"/>
	
		<linearGradient id="SVGID_00000051383645340400394750000016641282855560588430_" gradientUnits="userSpaceOnUse" x1="29.5466" y1="55.4853" x2="29.5466" y2="44.4853" gradientTransform="matrix(1 0 0 -1 -8.3622 60.8347)">
		<stop  offset="0" style="stop-color:#1F90FF;stop-opacity:0"/>
		<stop  offset="1" style="stop-color:#1F90FF"/>
	</linearGradient>
	<path style="fill:url(#SVGID_00000051383645340400394750000016641282855560588430_);" d="M21.2,8.9c0.3,0,0.6-0.3,0.6-0.6
		s-0.3-0.6-0.6-0.6c-0.3,0-0.6,0.3-0.6,0.6S20.9,8.9,21.2,8.9z"/>
	
		<linearGradient id="SVGID_00000103986641478459666250000002109297549520682386_" gradientUnits="userSpaceOnUse" x1="32.0466" y1="55.4853" x2="32.0466" y2="44.4853" gradientTransform="matrix(1 0 0 -1 -8.3622 60.8347)">
		<stop  offset="0" style="stop-color:#1F90FF;stop-opacity:0"/>
		<stop  offset="1" style="stop-color:#1F90FF"/>
	</linearGradient>
	<path style="fill:url(#SVGID_00000103986641478459666250000002109297549520682386_);" d="M23.7,8.9c0.3,0,0.6-0.3,0.6-0.6
		S24,7.8,23.7,7.8c-0.3,0-0.6,0.3-0.6,0.6S23.4,8.9,23.7,8.9z"/>
	
		<linearGradient id="SVGID_00000179612894564175051120000010798195409400638865_" gradientUnits="userSpaceOnUse" x1="34.5466" y1="55.4853" x2="34.5466" y2="44.4853" gradientTransform="matrix(1 0 0 -1 -8.3622 60.8347)">
		<stop  offset="0" style="stop-color:#1F90FF;stop-opacity:0"/>
		<stop  offset="1" style="stop-color:#1F90FF"/>
	</linearGradient>
	<path style="fill:url(#SVGID_00000179612894564175051120000010798195409400638865_);" d="M26.2,8.9c0.3,0,0.6-0.3,0.6-0.6
		s-0.3-0.6-0.6-0.6c-0.3,0-0.6,0.3-0.6,0.6S25.9,8.9,26.2,8.9z"/>
	
		<linearGradient id="SVGID_00000045607499124567713310000011423732539228719802_" gradientUnits="userSpaceOnUse" x1="37.0466" y1="55.4853" x2="37.0466" y2="44.4853" gradientTransform="matrix(1 0 0 -1 -8.3622 60.8347)">
		<stop  offset="0" style="stop-color:#1F90FF;stop-opacity:0"/>
		<stop  offset="1" style="stop-color:#1F90FF"/>
	</linearGradient>
	<path style="fill:url(#SVGID_00000045607499124567713310000011423732539228719802_);" d="M28.7,8.9c0.3,0,0.6-0.3,0.6-0.6
		S29,7.8,28.7,7.8c-0.3,0-0.6,0.3-0.6,0.6S28.4,8.9,28.7,8.9z"/>
	
		<linearGradient id="SVGID_00000041295382166037556600000010456383486268595101_" gradientUnits="userSpaceOnUse" x1="12.0466" y1="55.4853" x2="12.0466" y2="44.4853" gradientTransform="matrix(1 0 0 -1 -8.3622 60.8347)">
		<stop  offset="0" style="stop-color:#1F90FF;stop-opacity:0"/>
		<stop  offset="1" style="stop-color:#1F90FF"/>
	</linearGradient>
	<path style="fill:url(#SVGID_00000041295382166037556600000010456383486268595101_);" d="M3.7,11.5c0.4,0,0.7-0.3,0.7-0.7
		s-0.3-0.7-0.7-0.7S3,10.5,3,10.8S3.3,11.5,3.7,11.5z"/>
	
		<linearGradient id="SVGID_00000167356602674516093640000010829679837251220666_" gradientUnits="userSpaceOnUse" x1="14.5466" y1="55.4853" x2="14.5466" y2="44.4853" gradientTransform="matrix(1 0 0 -1 -8.3622 60.8347)">
		<stop  offset="0" style="stop-color:#1F90FF;stop-opacity:0"/>
		<stop  offset="1" style="stop-color:#1F90FF"/>
	</linearGradient>
	<path style="fill:url(#SVGID_00000167356602674516093640000010829679837251220666_);" d="M6.2,11.5c0.4,0,0.7-0.3,0.7-0.7
		s-0.3-0.7-0.7-0.7s-0.7,0.3-0.7,0.7S5.8,11.5,6.2,11.5z"/>
	
		<linearGradient id="SVGID_00000162350335113213438310000016513863893049577129_" gradientUnits="userSpaceOnUse" x1="17.0466" y1="55.4853" x2="17.0466" y2="44.4853" gradientTransform="matrix(1 0 0 -1 -8.3622 60.8347)">
		<stop  offset="0" style="stop-color:#1F90FF;stop-opacity:0"/>
		<stop  offset="1" style="stop-color:#1F90FF"/>
	</linearGradient>
	<path style="fill:url(#SVGID_00000162350335113213438310000016513863893049577129_);" d="M8.7,11.5c0.4,0,0.7-0.3,0.7-0.7
		s-0.3-0.7-0.7-0.7S8,10.5,8,10.8S8.3,11.5,8.7,11.5z"/>
	
		<linearGradient id="SVGID_00000031901968620712168720000017030602754994741131_" gradientUnits="userSpaceOnUse" x1="19.5466" y1="55.4853" x2="19.5466" y2="44.4853" gradientTransform="matrix(1 0 0 -1 -8.3622 60.8347)">
		<stop  offset="0" style="stop-color:#1F90FF;stop-opacity:0"/>
		<stop  offset="1" style="stop-color:#1F90FF"/>
	</linearGradient>
	<path style="fill:url(#SVGID_00000031901968620712168720000017030602754994741131_);" d="M11.2,11.5c0.4,0,0.7-0.3,0.7-0.7
		s-0.3-0.7-0.7-0.7c-0.4,0-0.7,0.3-0.7,0.7S10.8,11.5,11.2,11.5z"/>
	
		<linearGradient id="SVGID_00000053510594394836974490000008088806493808638855_" gradientUnits="userSpaceOnUse" x1="22.0466" y1="55.4853" x2="22.0466" y2="44.4853" gradientTransform="matrix(1 0 0 -1 -8.3622 60.8347)">
		<stop  offset="0" style="stop-color:#1F90FF;stop-opacity:0"/>
		<stop  offset="1" style="stop-color:#1F90FF"/>
	</linearGradient>
	<path style="fill:url(#SVGID_00000053510594394836974490000008088806493808638855_);" d="M13.7,11.5c0.4,0,0.7-0.3,0.7-0.7
		s-0.3-0.7-0.7-0.7c-0.4,0-0.7,0.3-0.7,0.7S13.3,11.5,13.7,11.5z"/>
	
		<linearGradient id="SVGID_00000011745655174008440160000015424312347543959476_" gradientUnits="userSpaceOnUse" x1="24.5466" y1="55.4853" x2="24.5466" y2="44.4853" gradientTransform="matrix(1 0 0 -1 -8.3622 60.8347)">
		<stop  offset="0" style="stop-color:#1F90FF;stop-opacity:0"/>
		<stop  offset="1" style="stop-color:#1F90FF"/>
	</linearGradient>
	<path style="fill:url(#SVGID_00000011745655174008440160000015424312347543959476_);" d="M16.2,11.5c0.4,0,0.7-0.3,0.7-0.7
		s-0.3-0.7-0.7-0.7c-0.4,0-0.7,0.3-0.7,0.7S15.8,11.5,16.2,11.5z"/>
	
		<linearGradient id="SVGID_00000174570674674874135430000006526369713979119275_" gradientUnits="userSpaceOnUse" x1="27.0466" y1="55.4853" x2="27.0466" y2="44.4853" gradientTransform="matrix(1 0 0 -1 -8.3622 60.8347)">
		<stop  offset="0" style="stop-color:#1F90FF;stop-opacity:0"/>
		<stop  offset="1" style="stop-color:#1F90FF"/>
	</linearGradient>
	<path style="fill:url(#SVGID_00000174570674674874135430000006526369713979119275_);" d="M18.7,11.5c0.4,0,0.7-0.3,0.7-0.7
		s-0.3-0.7-0.7-0.7c-0.4,0-0.7,0.3-0.7,0.7S18.3,11.5,18.7,11.5z"/>
	
		<linearGradient id="SVGID_00000023960790874763267970000002816564136183125689_" gradientUnits="userSpaceOnUse" x1="29.5466" y1="55.4853" x2="29.5466" y2="44.4853" gradientTransform="matrix(1 0 0 -1 -8.3622 60.8347)">
		<stop  offset="0" style="stop-color:#1F90FF;stop-opacity:0"/>
		<stop  offset="1" style="stop-color:#1F90FF"/>
	</linearGradient>
	<path style="fill:url(#SVGID_00000023960790874763267970000002816564136183125689_);" d="M21.2,11.5c0.4,0,0.7-0.3,0.7-0.7
		s-0.3-0.7-0.7-0.7c-0.4,0-0.7,0.3-0.7,0.7S20.8,11.5,21.2,11.5z"/>
	
		<linearGradient id="SVGID_00000096022159734720341640000018115005095306586272_" gradientUnits="userSpaceOnUse" x1="32.0466" y1="55.4853" x2="32.0466" y2="44.4853" gradientTransform="matrix(1 0 0 -1 -8.3622 60.8347)">
		<stop  offset="0" style="stop-color:#1F90FF;stop-opacity:0"/>
		<stop  offset="1" style="stop-color:#1F90FF"/>
	</linearGradient>
	<path style="fill:url(#SVGID_00000096022159734720341640000018115005095306586272_);" d="M23.7,11.5c0.4,0,0.7-0.3,0.7-0.7
		s-0.3-0.7-0.7-0.7c-0.4,0-0.7,0.3-0.7,0.7S23.3,11.5,23.7,11.5z"/>
	
		<linearGradient id="SVGID_00000165229845053470051390000017700238592182143376_" gradientUnits="userSpaceOnUse" x1="34.5466" y1="55.4853" x2="34.5466" y2="44.4853" gradientTransform="matrix(1 0 0 -1 -8.3622 60.8347)">
		<stop  offset="0" style="stop-color:#1F90FF;stop-opacity:0"/>
		<stop  offset="1" style="stop-color:#1F90FF"/>
	</linearGradient>
	<path style="fill:url(#SVGID_00000165229845053470051390000017700238592182143376_);" d="M26.2,11.5c0.4,0,0.7-0.3,0.7-0.7
		s-0.3-0.7-0.7-0.7c-0.4,0-0.7,0.3-0.7,0.7S25.8,11.5,26.2,11.5z"/>
	
		<linearGradient id="SVGID_00000034795433845125895640000005873859316758440877_" gradientUnits="userSpaceOnUse" x1="37.0466" y1="55.4853" x2="37.0466" y2="44.4853" gradientTransform="matrix(1 0 0 -1 -8.3622 60.8347)">
		<stop  offset="0" style="stop-color:#1F90FF;stop-opacity:0"/>
		<stop  offset="1" style="stop-color:#1F90FF"/>
	</linearGradient>
	<path style="fill:url(#SVGID_00000034795433845125895640000005873859316758440877_);" d="M28.7,11.5c0.4,0,0.7-0.3,0.7-0.7
		s-0.3-0.7-0.7-0.7c-0.4,0-0.7,0.3-0.7,0.7S28.3,11.5,28.7,11.5z"/>
	
		<linearGradient id="SVGID_00000154418481910191054320000006804518289752297387_" gradientUnits="userSpaceOnUse" x1="39.5466" y1="55.4853" x2="39.5466" y2="44.4853" gradientTransform="matrix(1 0 0 -1 -8.3622 60.8347)">
		<stop  offset="0" style="stop-color:#1F90FF;stop-opacity:0"/>
		<stop  offset="1" style="stop-color:#1F90FF"/>
	</linearGradient>
	<path style="fill:url(#SVGID_00000154418481910191054320000006804518289752297387_);" d="M31.2,11.5c0.4,0,0.7-0.3,0.7-0.7
		s-0.3-0.7-0.7-0.7c-0.4,0-0.7,0.3-0.7,0.7S30.8,11.5,31.2,11.5z"/>
	
		<linearGradient id="SVGID_00000147200123313114183300000014943391747076469676_" gradientUnits="userSpaceOnUse" x1="17.0466" y1="55.4853" x2="17.0466" y2="44.4853" gradientTransform="matrix(1 0 0 -1 -8.3622 60.8347)">
		<stop  offset="0" style="stop-color:#1F90FF;stop-opacity:0"/>
		<stop  offset="1" style="stop-color:#1F90FF"/>
	</linearGradient>
	<path style="fill:url(#SVGID_00000147200123313114183300000014943391747076469676_);" d="M8.7,14.1c0.4,0,0.8-0.3,0.8-0.8
		c0-0.4-0.3-0.8-0.8-0.8s-0.8,0.3-0.8,0.8C7.9,13.8,8.3,14.1,8.7,14.1z"/>
	
		<linearGradient id="SVGID_00000180352868207370272520000010139192992197062331_" gradientUnits="userSpaceOnUse" x1="19.5466" y1="55.4853" x2="19.5466" y2="44.4853" gradientTransform="matrix(1 0 0 -1 -8.3622 60.8347)">
		<stop  offset="0" style="stop-color:#1F90FF;stop-opacity:0"/>
		<stop  offset="1" style="stop-color:#1F90FF"/>
	</linearGradient>
	<path style="fill:url(#SVGID_00000180352868207370272520000010139192992197062331_);" d="M11.2,14.1c0.4,0,0.8-0.3,0.8-0.8
		s-0.3-0.8-0.8-0.8c-0.4,0-0.8,0.3-0.8,0.8S10.8,14.1,11.2,14.1z"/>
	
		<linearGradient id="SVGID_00000080924723423367185010000018321215966766829974_" gradientUnits="userSpaceOnUse" x1="22.0466" y1="55.4853" x2="22.0466" y2="44.4853" gradientTransform="matrix(1 0 0 -1 -8.3622 60.8347)">
		<stop  offset="0" style="stop-color:#1F90FF;stop-opacity:0"/>
		<stop  offset="1" style="stop-color:#1F90FF"/>
	</linearGradient>
	<path style="fill:url(#SVGID_00000080924723423367185010000018321215966766829974_);" d="M13.7,14.1c0.4,0,0.8-0.3,0.8-0.8
		s-0.3-0.8-0.8-0.8c-0.4,0-0.8,0.3-0.8,0.8S13.3,14.1,13.7,14.1z"/>
	
		<linearGradient id="SVGID_00000108310477116242711320000012097343933186801324_" gradientUnits="userSpaceOnUse" x1="24.5466" y1="55.4853" x2="24.5466" y2="44.4853" gradientTransform="matrix(1 0 0 -1 -8.3622 60.8347)">
		<stop  offset="0" style="stop-color:#1F90FF;stop-opacity:0"/>
		<stop  offset="1" style="stop-color:#1F90FF"/>
	</linearGradient>
	<path style="fill:url(#SVGID_00000108310477116242711320000012097343933186801324_);" d="M16.2,14.1c0.4,0,0.8-0.3,0.8-0.8
		s-0.3-0.8-0.8-0.8c-0.4,0-0.8,0.3-0.8,0.8S15.8,14.1,16.2,14.1z"/>
	
		<linearGradient id="SVGID_00000000186006058630185470000005940768728259522444_" gradientUnits="userSpaceOnUse" x1="27.0466" y1="55.4853" x2="27.0466" y2="44.4853" gradientTransform="matrix(1 0 0 -1 -8.3622 60.8347)">
		<stop  offset="0" style="stop-color:#1F90FF;stop-opacity:0"/>
		<stop  offset="1" style="stop-color:#1F90FF"/>
	</linearGradient>
	<path style="fill:url(#SVGID_00000000186006058630185470000005940768728259522444_);" d="M18.7,14.1c0.4,0,0.8-0.3,0.8-0.8
		s-0.3-0.8-0.8-0.8c-0.4,0-0.8,0.3-0.8,0.8S18.3,14.1,18.7,14.1z"/>
	
		<linearGradient id="SVGID_00000103240708524192546910000010919740408344204446_" gradientUnits="userSpaceOnUse" x1="29.5466" y1="55.4853" x2="29.5466" y2="44.4853" gradientTransform="matrix(1 0 0 -1 -8.3622 60.8347)">
		<stop  offset="0" style="stop-color:#1F90FF;stop-opacity:0"/>
		<stop  offset="1" style="stop-color:#1F90FF"/>
	</linearGradient>
	<path style="fill:url(#SVGID_00000103240708524192546910000010919740408344204446_);" d="M21.2,14.1c0.4,0,0.8-0.3,0.8-0.8
		s-0.3-0.8-0.8-0.8c-0.4,0-0.8,0.3-0.8,0.8S20.8,14.1,21.2,14.1z"/>
	
		<linearGradient id="SVGID_00000052086027583649266580000014679824569430396317_" gradientUnits="userSpaceOnUse" x1="32.0466" y1="55.4853" x2="32.0466" y2="44.4853" gradientTransform="matrix(1 0 0 -1 -8.3622 60.8347)">
		<stop  offset="0" style="stop-color:#1F90FF;stop-opacity:0"/>
		<stop  offset="1" style="stop-color:#1F90FF"/>
	</linearGradient>
	<path style="fill:url(#SVGID_00000052086027583649266580000014679824569430396317_);" d="M23.7,14.1c0.4,0,0.8-0.3,0.8-0.8
		s-0.3-0.8-0.8-0.8c-0.4,0-0.8,0.3-0.8,0.8S23.3,14.1,23.7,14.1z"/>
	
		<linearGradient id="SVGID_00000152985906964598742830000000272857749997511552_" gradientUnits="userSpaceOnUse" x1="34.5466" y1="55.4853" x2="34.5466" y2="44.4853" gradientTransform="matrix(1 0 0 -1 -8.3622 60.8347)">
		<stop  offset="0" style="stop-color:#1F90FF;stop-opacity:0"/>
		<stop  offset="1" style="stop-color:#1F90FF"/>
	</linearGradient>
	<path style="fill:url(#SVGID_00000152985906964598742830000000272857749997511552_);" d="M26.2,14c0.4,0,0.7-0.3,0.7-0.7
		s-0.3-0.7-0.7-0.7c-0.4,0-0.7,0.3-0.7,0.7S25.8,14,26.2,14z"/>
	
		<linearGradient id="SVGID_00000054234526300086813690000012092534062042008233_" gradientUnits="userSpaceOnUse" x1="24.5466" y1="55.4853" x2="24.5466" y2="44.4853" gradientTransform="matrix(1 0 0 -1 -8.3622 60.8347)">
		<stop  offset="0" style="stop-color:#1F90FF;stop-opacity:0"/>
		<stop  offset="1" style="stop-color:#1F90FF"/>
	</linearGradient>
	<path style="fill:url(#SVGID_00000054234526300086813690000012092534062042008233_);" d="M16.2,16.3c0.3,0,0.5-0.2,0.5-0.5
		c0-0.3-0.2-0.5-0.5-0.5c-0.3,0-0.5,0.2-0.5,0.5C15.7,16.1,15.9,16.3,16.2,16.3z"/>
	
		<linearGradient id="SVGID_00000179628348457779217810000007643415804079034814_" gradientUnits="userSpaceOnUse" x1="27.0466" y1="55.4853" x2="27.0466" y2="44.4853" gradientTransform="matrix(1 0 0 -1 -8.3622 60.8347)">
		<stop  offset="0" style="stop-color:#1F90FF;stop-opacity:0"/>
		<stop  offset="1" style="stop-color:#1F90FF"/>
	</linearGradient>
	<path style="fill:url(#SVGID_00000179628348457779217810000007643415804079034814_);" d="M18.7,16.3c0.3,0,0.5-0.2,0.5-0.5
		c0-0.3-0.2-0.5-0.5-0.5c-0.3,0-0.5,0.2-0.5,0.5C18.2,16.1,18.4,16.3,18.7,16.3z"/>
	<defs>
		<filter id="Adobe_OpacityMaskFilter" filterUnits="userSpaceOnUse" x="28.1" y="10.9" width="6.8" height="21.2">
			<feColorMatrix  type="matrix" values="1 0 0 0 0  0 1 0 0 0  0 0 1 0 0  0 0 0 1 0"/>
		</filter>
	</defs>
	
		<mask maskUnits="userSpaceOnUse" x="28.1" y="10.9" width="6.8" height="21.2" id="path-2-inside-1_4156_2187_00000168836797725429748870000002373249774375540669_">
		<path class="st37" d="M32,11.9h-1v14.5c-0.1,0-0.1,0.1-0.2,0.2L29.4,28c-0.4,0.4-0.4,1,0,1.4l1.4,1.4c0.4,0.4,1,0.4,1.4,0l1.4-1.4
			c0.4-0.4,0.4-1,0-1.4l-1.4-1.4c-0.1-0.1-0.1-0.1-0.2-0.2V11.9z"/>
	</mask>
	<path class="st38" d="M31,11.9v-1h-1v1H31z M32,11.9h1v-1h-1V11.9z M31,26.5l0.5,0.9L32,27v-0.6H31z M30.8,26.6l-0.7-0.7l0,0
		L30.8,26.6z M29.4,28l0.7,0.7l0,0L29.4,28z M29.4,29.4l0.7-0.7l0,0L29.4,29.4z M30.8,30.9l-0.7,0.7l0,0L30.8,30.9z M32.2,30.9
		l0.7,0.7l0,0L32.2,30.9z M33.6,29.4l-0.7-0.7l0,0L33.6,29.4z M33.6,28l-0.7,0.7l0,0L33.6,28z M32.2,26.6l0.7-0.7l0,0L32.2,26.6z
		 M32,26.5h-1V27l0.5,0.3L32,26.5z M31,12.9h1v-2h-1V12.9z M32,26.5V11.9h-2v14.5H32z M31.5,27.3L31.5,27.3l-1-1.7
		c-0.1,0.1-0.3,0.2-0.4,0.3L31.5,27.3z M30.1,28.7l1.4-1.4l-1.4-1.4l-1.4,1.4L30.1,28.7z M30.1,28.7L30.1,28.7l-1.4-1.4
		c-0.8,0.8-0.8,2,0,2.8L30.1,28.7z M31.5,30.2l-1.4-1.4l-1.4,1.4l1.4,1.4L31.5,30.2z M31.5,30.2L31.5,30.2l-1.4,1.4
		c0.8,0.8,2,0.8,2.8,0L31.5,30.2z M32.9,28.7l-1.4,1.4l1.4,1.4l1.4-1.4L32.9,28.7z M32.9,28.7L32.9,28.7l1.4,1.4
		c0.8-0.8,0.8-2,0-2.8L32.9,28.7z M31.5,27.3l1.4,1.4l1.4-1.4l-1.4-1.4L31.5,27.3z M31.5,27.3L31.5,27.3l1.4-1.4
		c-0.1-0.1-0.3-0.2-0.4-0.3L31.5,27.3z M31,11.9v14.5h2V11.9H31z"/>
	<path class="st39" d="M17.8,17.1L17.8,17.1L17.8,17.1L17.8,17.1L17.8,17.1L17.8,17.1L17.8,17.1L17.8,17.1L17.8,17.1L17.8,17.1
		L17.8,17.1L17.8,17.1L17.8,17.1L17.8,17.1L17.8,17.1L17.8,17.1L17.8,17.1L17.8,17.1L17.8,17.1L17.8,17.1L17.8,17.1L17.8,17.1
		L17.8,17.1L17.8,17.1L17.8,17.1L17.8,17.1L17.8,17.1L17.8,17.1L17.8,17.1L17.8,17.1L17.8,17.1L17.8,17.1L17.8,17.1L17.8,17.1
		L17.8,17.1L17.8,17.1L17.8,17.1L17.8,17.1L17.8,17.1L17.8,17.1L17.8,17.1L17.8,17.1L17.8,17.1L17.8,17.1L17.8,17.1L17.8,17.1
		L17.8,17.1L17.8,17.1L17.8,17.1L17.8,17.1L17.8,17.1L17.8,17.1L17.8,17.1L17.8,17.1L17.8,17.1L17.8,17.1L17.8,17.1L17.8,17.1
		L17.8,17.1L17.8,17.1L17.8,17.1L17.8,17.1L17.8,17.1L17.8,17.1L17.8,17.1L17.8,17.1L17.8,17.1L17.8,17.1L17.8,17.1L17.8,17.1
		L17.8,17.1L17.8,17.1L17.8,17.1L17.8,17.1L17.8,17.1L17.8,17.1L17.8,17.1L17.8,17.1L17.8,17.1L17.8,17.1L17.8,17.1L17.8,17.1
		L17.8,17.1L17.8,17.1L17.8,17.1L17.8,17.1L17.8,17.1L17.8,17.1L17.8,17.1L17.8,17.1L17.8,17.1L17.8,17.1L17.8,17.1L17.8,17.1
		L17.8,17.1L17.8,17.1L17.8,17.1L17.8,17.1L17.8,17.1L17.8,17.1L17.8,17.1L17.8,17.1L17.8,17.1L17.8,17.1L17.8,17.1L17.8,17.1
		L17.8,17.1L17.8,17.1L17.8,17.1L17.8,17.1L17.8,17.1L17.8,17.1L17.8,17.1L17.8,17.1L17.8,17.1L17.8,17.1L17.8,17.1L17.8,17.1
		L17.8,17.1L17.8,17.1L17.8,17.1L17.8,17.1L17.8,17.1L17.8,17.1L17.8,17.1L17.8,17.1L17.8,17.1L17.8,17.1L17.8,17.1L17.8,17.1
		L17.8,17.1L17.8,17.1L17.8,17.1L17.8,17.1L17.8,17.1L17.8,17.1L17.8,17.1L17.8,17.1L17.8,17.1L17.8,17.1L17.8,17.1L17.8,17.1
		L17.8,17.1L17.8,17.1L17.8,17.1L17.8,17.1L17.8,17.1L17.8,17.1L17.8,17.1L17.8,17.1L17.8,17.1L17.8,17.1L17.8,17.1L17.8,17.1
		L17.8,17.1L17.8,17.1L17.8,17.1L17.8,17.1L17.8,17.1L17.8,17.1L17.8,17.1L17.8,17.1L17.8,17.1L17.8,17.1L17.8,17.1L17.8,17.1
		L17.8,17.1L17.8,17.1L17.8,17.1L17.8,17.1L17.8,17.1L17.8,17.1L17.8,17.1L17.8,17.1L17.8,17.1L17.8,17.1L17.8,17.1L17.8,17.1
		L17.8,17.1L17.8,17.1L17.8,17.1L17.8,17.1L17.8,17.1L17.8,17.1L17.8,17.1L17.8,17.1L17.8,17.1L17.8,17.1L17.8,17.1L17.8,17.1
		L17.8,17.1L17.8,17.1L17.8,17.1L17.8,17.1L17.8,17.1L17.8,17.1L17.8,17.1L17.8,17.1L17.8,17.1L17.8,17.1L17.8,17.1L17.8,17.1
		L17.8,17.1L17.8,17.1L17.8,17.1L17.8,17.1L17.8,17.1L17.8,17.1L17.8,17.1L17.8,17.1L17.8,17.1L17.8,17.1L17.8,17.1L17.8,17.1
		L17.8,17.1L17.8,17.1L17.8,17.1L17.8,17.1L17.8,17.1L17.8,17.1L17.8,17.1L17.8,17.1L17.8,17.1L17.8,17.1L17.8,17.1L17.8,17.1
		L17.8,17.1L17.8,17.1L17.8,17.1L17.8,17.1L17.8,17.1L17.8,17.1L17.8,17.1L17.8,17.1L17.8,17.1L17.8,17.1L17.8,17.1L17.8,17.1
		L17.8,17.1L17.8,17.1L17.8,17.1L17.8,17.1L17.8,17.1L17.8,17.1L17.8,17.1L17.8,17.1L17.8,17.1L17.8,17.1L17.8,17.1L17.8,17.1
		L17.8,17.1L17.8,17.1L17.8,17.1L17.8,17.1h-0.1h0h0h0h0h0h0h0h0h0h0h0h0h0h0h0h0h0h0h0h0h0h0h0h0h0h0L0.5,10.4c0,0,0,0,0,0
		c0,0,0,0,0,0c0,0,0,0,0,0s0,0,0,0c0,0,0,0,0,0L18,3.8h0h0h0h0h0h0h0h0h0h0h0h0h0h0h0h0h0h0h0h0h0h0h0h0h0h0h0h0h0h0h0h0h0h0h0h0h0
		h0h0h0h0h0h0h0h0h0h0h0h0h0h0h0h0h0h0h0h0h0h0h0h0h0h0h0h0h0h0h0h0h0h0h0h0h0h0h0h0h0h0h0h0h0h0h0h0h0h0h0h0h0h0h0h0h0h0h0h0h0h0h0
		h0h0h0h0h0h0h0h0h0h0h0h0h0h0h0h0h0h0h0h0h0h0h0h0h0h0h0h0h0h0h0h0h0h0h0h0h0h0h0h0h0h0h0h0h0h0h0h0h0h0h0h0h0h0h0h0h0h0h0h0h0h0h0
		h0h0h0h0h0h0h0h0h0h0h0h0h0h0h0h0h0h0h0h0h0h0h0h0h0h0h0h0h0h0h0h0h0h0h0h0h0h0h0h0h0h0h0h0h0h0h0h0h0l17.3,6.4c0,0,0,0,0,0
		c0,0,0,0,0,0c0,0,0,0,0,0c0,0,0,0,0,0c0,0,0,0,0,0c0,0,0,0,0,0L18,17.1h0h0h0h0h0h0h0h0h0h0h0h0h0h0h0h0h0h0h0h0h0h0h0h0h0h0h0h0h0
		h0h0h0H17.8L17.8,17.1L17.8,17.1L17.8,17.1L17.8,17.1L17.8,17.1L17.8,17.1L17.8,17.1L17.8,17.1L17.8,17.1L17.8,17.1L17.8,17.1
		L17.8,17.1L17.8,17.1L17.8,17.1L17.8,17.1L17.8,17.1L17.8,17.1L17.8,17.1L17.8,17.1L17.8,17.1L17.8,17.1L17.8,17.1L17.8,17.1
		L17.8,17.1L17.8,17.1L17.8,17.1L17.8,17.1L17.8,17.1L17.8,17.1L17.8,17.1L17.8,17.1L17.8,17.1L17.8,17.1L17.8,17.1L17.8,17.1
		L17.8,17.1L17.8,17.1L17.8,17.1L17.8,17.1L17.8,17.1L17.8,17.1L17.8,17.1L17.8,17.1L17.8,17.1L17.8,17.1L17.8,17.1L17.8,17.1
		L17.8,17.1L17.8,17.1L17.8,17.1L17.8,17.1L17.8,17.1L17.8,17.1L17.8,17.1L17.8,17.1L17.8,17.1L17.8,17.1L17.8,17.1L17.8,17.1
		L17.8,17.1L17.8,17.1L17.8,17.1L17.8,17.1L17.8,17.1L17.8,17.1L17.8,17.1L17.8,17.1L17.8,17.1L17.8,17.1L17.8,17.1L17.8,17.1
		L17.8,17.1L17.8,17.1L17.8,17.1L17.8,17.1L17.8,17.1L17.8,17.1L17.8,17.1L17.8,17.1L17.8,17.1L17.8,17.1L17.8,17.1L17.8,17.1
		L17.8,17.1L17.8,17.1L17.8,17.1L17.8,17.1L17.8,17.1L17.8,17.1L17.8,17.1L17.8,17.1L17.8,17.1L17.8,17.1L17.8,17.1L17.8,17.1
		L17.8,17.1L17.8,17.1L17.8,17.1L17.8,17.1L17.8,17.1L17.8,17.1L17.8,17.1L17.8,17.1L17.8,17.1L17.8,17.1L17.8,17.1L17.8,17.1
		L17.8,17.1L17.8,17.1L17.8,17.1L17.8,17.1L17.8,17.1L17.8,17.1L17.8,17.1L17.8,17.1L17.8,17.1L17.8,17.1L17.8,17.1L17.8,17.1
		L17.8,17.1L17.8,17.1L17.8,17.1L17.8,17.1L17.8,17.1L17.8,17.1L17.8,17.1L17.8,17.1L17.8,17.1L17.8,17.1L17.8,17.1L17.8,17.1
		L17.8,17.1L17.8,17.1L17.8,17.1L17.8,17.1L17.8,17.1L17.8,17.1L17.8,17.1L17.8,17.1L17.8,17.1L17.8,17.1L17.8,17.1L17.8,17.1
		L17.8,17.1L17.8,17.1L17.8,17.1L17.8,17.1L17.8,17.1L17.8,17.1L17.8,17.1L17.8,17.1L17.8,17.1L17.8,17.1L17.8,17.1L17.8,17.1
		L17.8,17.1L17.8,17.1L17.8,17.1L17.8,17.1L17.8,17.1L17.8,17.1L17.8,17.1L17.8,17.1L17.8,17.1L17.8,17.1L17.8,17.1L17.8,17.1
		L17.8,17.1L17.8,17.1L17.8,17.1L17.8,17.1L17.8,17.1L17.8,17.1L17.8,17.1L17.8,17.1L17.8,17.1L17.8,17.1L17.8,17.1L17.8,17.1
		L17.8,17.1L17.8,17.1L17.8,17.1L17.8,17.1L17.8,17.1L17.8,17.1L17.8,17.1L17.8,17.1L17.8,17.1L17.8,17.1L17.8,17.1L17.8,17.1
		L17.8,17.1L17.8,17.1L17.8,17.1L17.8,17.1L17.8,17.1L17.8,17.1L17.8,17.1L17.8,17.1L17.8,17.1L17.8,17.1L17.8,17.1L17.8,17.1
		L17.8,17.1L17.8,17.1L17.8,17.1L17.8,17.1L17.8,17.1L17.8,17.1L17.8,17.1L17.8,17.1L17.8,17.1L17.8,17.1L17.8,17.1L17.8,17.1
		L17.8,17.1L17.8,17.1L17.8,17.1L17.8,17.1L17.8,17.1L17.8,17.1L17.8,17.1L17.8,17.1L17.8,17.1L17.8,17.1L17.8,17.1L17.8,17.1
		L17.8,17.1L17.8,17.1L17.8,17.1L17.8,17.1L17.8,17.1L17.8,17.1L17.8,17.1L17.8,17.1L17.8,17.1L17.8,17.1L17.8,17.1L17.8,17.1
		L17.8,17.1L17.8,17.1L17.8,17.1L17.8,17.1L17.8,17.1L17.8,17.1L17.8,17.1L17.8,17.1L17.8,17.1L17.8,17.1L17.8,17.1L17.8,17.1
		L17.8,17.1z"/>
	<path class="st39" d="M7.5,25.3v-9l9.1,3.5c0.4,0.2,0.9,0.2,1.3,0.2c0.4,0,0.9-0.1,1.3-0.2l8.5-3.3v8.7C22,30.6,13.2,30.6,7.5,25.3
		z"/>
</g>
</svg>
