<?xml version="1.0" encoding="utf-8"?>
<!-- Generator: Adobe Illustrator 26.3.1, SVG Export Plug-In . SVG Version: 6.00 Build 0)  -->
<svg version="1.1" id="eUtfKsV2qQa1" text-rendering="geometricPrecision" shape-rendering="geometricPrecision"
	 xmlns="http://www.w3.org/2000/svg" xmlns:xlink="http://www.w3.org/1999/xlink" x="0px" y="0px" viewBox="0 0 36 36"
	 style="enable-background:new 0 0 36 36;" xml:space="preserve">
<style type="text/css">
	.st0{fill:url(#SVGID_1_);}
	.st1{fill:url(#SVGID_00000084501096446358493520000007286949506169218191_);}
	.st2{fill:url(#SVGID_00000178922867884854901390000018428172161597891987_);}
	.st3{fill:url(#SVGID_00000020364020863064982210000009804591115935974284_);}
	.st4{fill:url(#SVGID_00000100377270298706036120000013223534582434379904_);}
	.st5{fill:url(#SVGID_00000058571726675142572220000018240373610016657074_);}
	.st6{fill:url(#SVGID_00000142162193605854705260000008713154022760127122_);}
	.st7{fill:url(#SVGID_00000116226159313160919380000004670439625208592038_);}
	.st8{fill:url(#SVGID_00000175303005509845758970000000624397879730140590_);}
	.st9{fill:url(#SVGID_00000016064967905569753020000012562449092664106372_);}
	.st10{fill:url(#SVGID_00000085249564995585313110000003509136524493346974_);}
	.st11{fill:url(#SVGID_00000137838191394177367300000009662102945107316658_);}
	.st12{fill:url(#SVGID_00000012461020215321646700000014983611564123320216_);}
	.st13{fill:url(#SVGID_00000168815414851875944760000002622768012933232544_);}
	.st14{fill:url(#SVGID_00000018220396184720449290000014729530996457326501_);}
	.st15{fill:url(#SVGID_00000172422287714211994900000001829891777278131625_);}
	.st16{fill:url(#SVGID_00000066514841548806032600000016001148034069355184_);}
	.st17{fill:url(#SVGID_00000073683113230904007830000001950556929621039747_);}
	.st18{fill:url(#SVGID_00000183208060519592256530000013036219635683347898_);}
	.st19{fill:url(#SVGID_00000093157038440507846200000014576722976023162286_);}
	.st20{fill:url(#SVGID_00000108305052045206513870000017408663877483810177_);}
	.st21{fill:url(#SVGID_00000147916397194617193550000004259437173038708627_);}
	.st22{fill:url(#SVGID_00000116195324382679700640000005999432286938726048_);}
	.st23{fill:url(#SVGID_00000106858930559007566700000012479440738370749344_);}
	.st24{fill:url(#SVGID_00000084491520407342482290000005885718076550343870_);}
	.st25{fill:url(#SVGID_00000078028436057747262130000011991921129864241311_);}
	.st26{fill:url(#SVGID_00000155848096157265865690000012100813063032962182_);}
	.st27{fill:url(#SVGID_00000131333375588331072470000013810663913424141997_);}
	.st28{fill:url(#SVGID_00000114787950412638577810000004017891163954419353_);}
	.st29{fill:url(#SVGID_00000022561159872890308690000010076600212254419610_);}
	.st30{fill:url(#SVGID_00000168082185629365318630000004723602438763327399_);}
	.st31{fill:url(#SVGID_00000141432780823718524580000017787427204168650922_);}
	.st32{fill:url(#SVGID_00000048469500446409452530000006794369558427037834_);}
	.st33{fill:url(#SVGID_00000106849470919713767010000016578381462543770771_);}
	.st34{fill:url(#SVGID_00000013162818911555242470000005259484455547959978_);}
	.st35{fill:url(#SVGID_00000130607736714083360140000012195298090977246618_);}
	.st36{fill:url(#SVGID_00000034811869743347096410000017519134622882496912_);}
	.st37{fill:url(#SVGID_00000073713681915986231580000003278286734217879193_);}
	.st38{fill:url(#SVGID_00000034084029383341584710000000952773812556869823_);}
	.st39{fill:url(#SVGID_00000094604132951119826420000006742111433453630907_);}
	.st40{fill:url(#SVGID_00000085968783561243838550000004714821398324449963_);}
	.st41{fill:url(#SVGID_00000059297327871134291280000008076250782065176491_);}
	.st42{fill:url(#SVGID_00000129903634553305386170000011407275138862720395_);}
	.st43{fill:url(#SVGID_00000117664126099110663910000014513033530878724267_);}
	.st44{fill:url(#SVGID_00000133498887544408650250000017420520825735741588_);}
	.st45{fill:url(#SVGID_00000102535981361540780990000017071698824312411307_);}
	.st46{fill:url(#SVGID_00000075138878868935851420000013863663192375354302_);}
	.st47{fill:url(#SVGID_00000043458415732658423610000015611759066910126247_);}
	.st48{fill:url(#SVGID_00000038404904364106733050000005058760514967704499_);}
	.st49{fill:url(#SVGID_00000153663495522757010360000013528246237349920896_);}
	.st50{fill:url(#SVGID_00000093164172132727539810000006333950103381218238_);}
	.st51{fill:url(#SVGID_00000152961059933196793370000001144510299705296553_);}
	.st52{fill:url(#SVGID_00000147921294279397626810000007454836377854206368_);}
	.st53{fill:url(#SVGID_00000059996948638389673370000007537423060712977036_);}
	.st54{fill:url(#SVGID_00000129908796821908111180000006222662558017522311_);}
	.st55{fill:url(#SVGID_00000015338477246993820010000002124421336358790582_);}
	.st56{fill:url(#SVGID_00000071559547103031412370000002965129028887456686_);}
	.st57{fill:url(#SVGID_00000027594887708078145420000012612901376762178213_);}
	.st58{fill:url(#SVGID_00000013912552424814777120000013347071569082022054_);}
	.st59{fill:url(#SVGID_00000000211060960658026340000013764162355205543552_);}
	.st60{fill:url(#SVGID_00000018226228978998848660000017156787424620763313_);}
	.st61{fill:url(#SVGID_00000146467287328386475770000002008193980048402818_);}
	.st62{fill:url(#SVGID_00000015355823772106657050000005170793146285081476_);}
	.st63{fill:url(#SVGID_00000099638157024079688250000002930200068201595572_);}
	.st64{fill:url(#SVGID_00000042013403931384380900000000316148815769078159_);}
	.st65{fill:url(#SVGID_00000175307762978825595870000010693154088184748432_);}
	.st66{fill:url(#SVGID_00000042703234970646383060000010360199357427112611_);}
	.st67{fill:url(#SVGID_00000103233022336427372890000015330576770472649113_);}
	.st68{fill:url(#SVGID_00000055684532315177184520000012520462545957350051_);}
	.st69{fill:url(#SVGID_00000038375003356435924510000008068970872420767141_);}
	.st70{fill:url(#SVGID_00000164510065769045844070000006911230453295536261_);}
	.st71{fill:none;stroke:#1F90FF;}
</style>
<g>
	
		<linearGradient id="SVGID_1_" gradientUnits="userSpaceOnUse" x1="21.1184" y1="51.7402" x2="21.1184" y2="36.7402" gradientTransform="matrix(1 0 0 -1 -8.3622 60.8347)">
		<stop  offset="0" style="stop-color:#1F90FF;stop-opacity:0"/>
		<stop  offset="1" style="stop-color:#1F90FF"/>
	</linearGradient>
	<path class="st0" d="M12.8,10c0.3,0,0.5-0.2,0.5-0.5c0-0.3-0.2-0.5-0.5-0.5s-0.5,0.2-0.5,0.5C12.3,9.8,12.5,10,12.8,10z"/>
	
		<linearGradient id="SVGID_00000146473507099816543500000005613202036432955831_" gradientUnits="userSpaceOnUse" x1="23.4286" y1="51.7402" x2="23.4286" y2="36.7402" gradientTransform="matrix(1 0 0 -1 -8.3622 60.8347)">
		<stop  offset="0" style="stop-color:#1F90FF;stop-opacity:0"/>
		<stop  offset="1" style="stop-color:#1F90FF"/>
	</linearGradient>
	<path style="fill:url(#SVGID_00000146473507099816543500000005613202036432955831_);" d="M15.1,10c0.3,0,0.5-0.2,0.5-0.5
		c0-0.3-0.2-0.5-0.5-0.5c-0.3,0-0.5,0.2-0.5,0.5C14.6,9.8,14.8,10,15.1,10z"/>
	
		<linearGradient id="SVGID_00000139990443181484885520000009744326442209649283_" gradientUnits="userSpaceOnUse" x1="25.7387" y1="51.7402" x2="25.7387" y2="36.7402" gradientTransform="matrix(1 0 0 -1 -8.3622 60.8347)">
		<stop  offset="0" style="stop-color:#1F90FF;stop-opacity:0"/>
		<stop  offset="1" style="stop-color:#1F90FF"/>
	</linearGradient>
	<path style="fill:url(#SVGID_00000139990443181484885520000009744326442209649283_);" d="M17.4,10c0.3,0,0.5-0.2,0.5-0.5
		c0-0.3-0.2-0.5-0.5-0.5c-0.3,0-0.5,0.2-0.5,0.5C16.9,9.8,17.1,10,17.4,10z"/>
	
		<linearGradient id="SVGID_00000082353557541637215730000006274448501387462030_" gradientUnits="userSpaceOnUse" x1="28.0489" y1="51.7402" x2="28.0489" y2="36.7402" gradientTransform="matrix(1 0 0 -1 -8.3622 60.8347)">
		<stop  offset="0" style="stop-color:#1F90FF;stop-opacity:0"/>
		<stop  offset="1" style="stop-color:#1F90FF"/>
	</linearGradient>
	<path style="fill:url(#SVGID_00000082353557541637215730000006274448501387462030_);" d="M19.7,10c0.3,0,0.5-0.2,0.5-0.5
		c0-0.3-0.2-0.5-0.5-0.5c-0.3,0-0.5,0.2-0.5,0.5C19.2,9.8,19.4,10,19.7,10z"/>
	
		<linearGradient id="SVGID_00000154389390593413605870000017314351158079902629_" gradientUnits="userSpaceOnUse" x1="30.359" y1="51.7402" x2="30.359" y2="36.7402" gradientTransform="matrix(1 0 0 -1 -8.3622 60.8347)">
		<stop  offset="0" style="stop-color:#1F90FF;stop-opacity:0"/>
		<stop  offset="1" style="stop-color:#1F90FF"/>
	</linearGradient>
	<path style="fill:url(#SVGID_00000154389390593413605870000017314351158079902629_);" d="M22,10c0.3,0,0.5-0.2,0.5-0.5
		c0-0.3-0.2-0.5-0.5-0.5s-0.5,0.2-0.5,0.5C21.5,9.8,21.7,10,22,10z"/>
	
		<linearGradient id="SVGID_00000065060814350973722940000005722342572657853339_" gradientUnits="userSpaceOnUse" x1="18.8083" y1="51.7402" x2="18.8083" y2="36.7402" gradientTransform="matrix(1 0 0 -1 -8.3622 60.8347)">
		<stop  offset="0" style="stop-color:#1F90FF;stop-opacity:0"/>
		<stop  offset="1" style="stop-color:#1F90FF"/>
	</linearGradient>
	<path style="fill:url(#SVGID_00000065060814350973722940000005722342572657853339_);" d="M10.4,12.4c0.3,0,0.5-0.2,0.5-0.5
		c0-0.3-0.2-0.5-0.5-0.5c-0.3,0-0.5,0.2-0.5,0.5C10,12.2,10.2,12.4,10.4,12.4z"/>
	
		<linearGradient id="SVGID_00000145756389816887314140000001289270562982555043_" gradientUnits="userSpaceOnUse" x1="21.1184" y1="51.7402" x2="21.1184" y2="36.7402" gradientTransform="matrix(1 0 0 -1 -8.3622 60.8347)">
		<stop  offset="0" style="stop-color:#1F90FF;stop-opacity:0"/>
		<stop  offset="1" style="stop-color:#1F90FF"/>
	</linearGradient>
	<path style="fill:url(#SVGID_00000145756389816887314140000001289270562982555043_);" d="M12.8,12.4c0.3,0,0.5-0.2,0.5-0.5
		c0-0.3-0.2-0.5-0.5-0.5c-0.3,0-0.5,0.2-0.5,0.5C12.3,12.2,12.5,12.4,12.8,12.4z"/>
	
		<linearGradient id="SVGID_00000165938705056850859650000014264091396964268956_" gradientUnits="userSpaceOnUse" x1="23.4285" y1="51.7402" x2="23.4285" y2="36.7402" gradientTransform="matrix(1 0 0 -1 -8.3622 60.8347)">
		<stop  offset="0" style="stop-color:#1F90FF;stop-opacity:0"/>
		<stop  offset="1" style="stop-color:#1F90FF"/>
	</linearGradient>
	<path style="fill:url(#SVGID_00000165938705056850859650000014264091396964268956_);" d="M15.1,12.4c0.3,0,0.5-0.2,0.5-0.5
		c0-0.3-0.2-0.5-0.5-0.5c-0.3,0-0.5,0.2-0.5,0.5C14.6,12.2,14.8,12.4,15.1,12.4z"/>
	
		<linearGradient id="SVGID_00000027572122048620614510000011775292028879047310_" gradientUnits="userSpaceOnUse" x1="25.7387" y1="51.7402" x2="25.7387" y2="36.7402" gradientTransform="matrix(1 0 0 -1 -8.3622 60.8347)">
		<stop  offset="0" style="stop-color:#1F90FF;stop-opacity:0"/>
		<stop  offset="1" style="stop-color:#1F90FF"/>
	</linearGradient>
	<path style="fill:url(#SVGID_00000027572122048620614510000011775292028879047310_);" d="M17.4,12.4c0.3,0,0.5-0.2,0.5-0.5
		c0-0.3-0.2-0.5-0.5-0.5s-0.5,0.2-0.5,0.5C16.9,12.2,17.1,12.4,17.4,12.4z"/>
	
		<linearGradient id="SVGID_00000095304433533266544600000017050129377437169575_" gradientUnits="userSpaceOnUse" x1="28.0489" y1="51.7402" x2="28.0489" y2="36.7402" gradientTransform="matrix(1 0 0 -1 -8.3622 60.8347)">
		<stop  offset="0" style="stop-color:#1F90FF;stop-opacity:0"/>
		<stop  offset="1" style="stop-color:#1F90FF"/>
	</linearGradient>
	<path style="fill:url(#SVGID_00000095304433533266544600000017050129377437169575_);" d="M19.7,12.4c0.3,0,0.5-0.2,0.5-0.5
		c0-0.3-0.2-0.5-0.5-0.5c-0.3,0-0.5,0.2-0.5,0.5C19.2,12.2,19.4,12.4,19.7,12.4z"/>
	
		<linearGradient id="SVGID_00000150091043863127515540000018175218457125278627_" gradientUnits="userSpaceOnUse" x1="30.359" y1="51.7402" x2="30.359" y2="36.7402" gradientTransform="matrix(1 0 0 -1 -8.3622 60.8347)">
		<stop  offset="0" style="stop-color:#1F90FF;stop-opacity:0"/>
		<stop  offset="1" style="stop-color:#1F90FF"/>
	</linearGradient>
	<path style="fill:url(#SVGID_00000150091043863127515540000018175218457125278627_);" d="M22,12.4c0.3,0,0.5-0.2,0.5-0.5
		c0-0.3-0.2-0.5-0.5-0.5s-0.5,0.2-0.5,0.5C21.5,12.2,21.7,12.4,22,12.4z"/>
	
		<linearGradient id="SVGID_00000083080041616582819800000010462167131027544705_" gradientUnits="userSpaceOnUse" x1="32.6692" y1="51.7402" x2="32.6692" y2="36.7402" gradientTransform="matrix(1 0 0 -1 -8.3622 60.8347)">
		<stop  offset="0" style="stop-color:#1F90FF;stop-opacity:0"/>
		<stop  offset="1" style="stop-color:#1F90FF"/>
	</linearGradient>
	<path style="fill:url(#SVGID_00000083080041616582819800000010462167131027544705_);" d="M24.3,12.4c0.3,0,0.5-0.2,0.5-0.5
		c0-0.3-0.2-0.5-0.5-0.5c-0.3,0-0.5,0.2-0.5,0.5C23.8,12.2,24.1,12.4,24.3,12.4z"/>
	
		<linearGradient id="SVGID_00000158730268731921291750000008701233002349103803_" gradientUnits="userSpaceOnUse" x1="34.9793" y1="51.7402" x2="34.9793" y2="36.7402" gradientTransform="matrix(1 0 0 -1 -8.3622 60.8347)">
		<stop  offset="0" style="stop-color:#1F90FF;stop-opacity:0"/>
		<stop  offset="1" style="stop-color:#1F90FF"/>
	</linearGradient>
	<path style="fill:url(#SVGID_00000158730268731921291750000008701233002349103803_);" d="M26.6,12.4c0.3,0,0.5-0.2,0.5-0.5
		c0-0.3-0.2-0.5-0.5-0.5s-0.5,0.2-0.5,0.5C26.2,12.2,26.4,12.4,26.6,12.4z"/>
	
		<linearGradient id="SVGID_00000066488392982675504420000000919518832379667381_" gradientUnits="userSpaceOnUse" x1="16.4981" y1="51.7402" x2="16.4981" y2="36.7402" gradientTransform="matrix(1 0 0 -1 -8.3622 60.8347)">
		<stop  offset="0" style="stop-color:#1F90FF;stop-opacity:0"/>
		<stop  offset="1" style="stop-color:#1F90FF"/>
	</linearGradient>
	<path style="fill:url(#SVGID_00000066488392982675504420000000919518832379667381_);" d="M8.1,14.8c0.3,0,0.5-0.2,0.5-0.5
		c0-0.3-0.2-0.5-0.5-0.5c-0.3,0-0.5,0.2-0.5,0.5C7.6,14.5,7.8,14.8,8.1,14.8z"/>
	
		<linearGradient id="SVGID_00000135657593316509193000000002397524104360349603_" gradientUnits="userSpaceOnUse" x1="18.8083" y1="51.7402" x2="18.8083" y2="36.7402" gradientTransform="matrix(1 0 0 -1 -8.3622 60.8347)">
		<stop  offset="0" style="stop-color:#1F90FF;stop-opacity:0"/>
		<stop  offset="1" style="stop-color:#1F90FF"/>
	</linearGradient>
	<path style="fill:url(#SVGID_00000135657593316509193000000002397524104360349603_);" d="M10.4,14.8c0.3,0,0.5-0.2,0.5-0.5
		c0-0.3-0.2-0.5-0.5-0.5c-0.3,0-0.5,0.2-0.5,0.5C9.9,14.5,10.2,14.8,10.4,14.8z"/>
	
		<linearGradient id="SVGID_00000127758604624870866810000016639195557391859585_" gradientUnits="userSpaceOnUse" x1="21.1184" y1="51.7402" x2="21.1184" y2="36.7402" gradientTransform="matrix(1 0 0 -1 -8.3622 60.8347)">
		<stop  offset="0" style="stop-color:#1F90FF;stop-opacity:0"/>
		<stop  offset="1" style="stop-color:#1F90FF"/>
	</linearGradient>
	<path style="fill:url(#SVGID_00000127758604624870866810000016639195557391859585_);" d="M12.8,14.8c0.3,0,0.5-0.2,0.5-0.5
		c0-0.3-0.2-0.5-0.5-0.5s-0.5,0.2-0.5,0.5C12.2,14.5,12.5,14.8,12.8,14.8z"/>
	
		<linearGradient id="SVGID_00000165199655277627577070000016045620649343998336_" gradientUnits="userSpaceOnUse" x1="23.4286" y1="51.7402" x2="23.4286" y2="36.7402" gradientTransform="matrix(1 0 0 -1 -8.3622 60.8347)">
		<stop  offset="0" style="stop-color:#1F90FF;stop-opacity:0"/>
		<stop  offset="1" style="stop-color:#1F90FF"/>
	</linearGradient>
	<path style="fill:url(#SVGID_00000165199655277627577070000016045620649343998336_);" d="M15.1,14.8c0.3,0,0.5-0.2,0.5-0.5
		c0-0.3-0.2-0.5-0.5-0.5c-0.3,0-0.5,0.2-0.5,0.5C14.5,14.5,14.8,14.8,15.1,14.8z"/>
	
		<linearGradient id="SVGID_00000150071015195376281130000008087950817491807107_" gradientUnits="userSpaceOnUse" x1="25.7387" y1="51.7402" x2="25.7387" y2="36.7402" gradientTransform="matrix(1 0 0 -1 -8.3622 60.8347)">
		<stop  offset="0" style="stop-color:#1F90FF;stop-opacity:0"/>
		<stop  offset="1" style="stop-color:#1F90FF"/>
	</linearGradient>
	<path style="fill:url(#SVGID_00000150071015195376281130000008087950817491807107_);" d="M17.4,14.8c0.3,0,0.5-0.2,0.5-0.5
		c0-0.3-0.2-0.5-0.5-0.5c-0.3,0-0.5,0.2-0.5,0.5C16.9,14.5,17.1,14.8,17.4,14.8z"/>
	
		<linearGradient id="SVGID_00000166661777743089965320000017076297093679982496_" gradientUnits="userSpaceOnUse" x1="28.0489" y1="51.7402" x2="28.0489" y2="36.7402" gradientTransform="matrix(1 0 0 -1 -8.3622 60.8347)">
		<stop  offset="0" style="stop-color:#1F90FF;stop-opacity:0"/>
		<stop  offset="1" style="stop-color:#1F90FF"/>
	</linearGradient>
	<path style="fill:url(#SVGID_00000166661777743089965320000017076297093679982496_);" d="M19.7,14.8c0.3,0,0.5-0.2,0.5-0.5
		c0-0.3-0.2-0.5-0.5-0.5s-0.5,0.2-0.5,0.5C19.2,14.5,19.4,14.8,19.7,14.8z"/>
	
		<linearGradient id="SVGID_00000179638413879673750600000009373098877877916807_" gradientUnits="userSpaceOnUse" x1="30.359" y1="51.7402" x2="30.359" y2="36.7402" gradientTransform="matrix(1 0 0 -1 -8.3622 60.8347)">
		<stop  offset="0" style="stop-color:#1F90FF;stop-opacity:0"/>
		<stop  offset="1" style="stop-color:#1F90FF"/>
	</linearGradient>
	<path style="fill:url(#SVGID_00000179638413879673750600000009373098877877916807_);" d="M22,14.8c0.3,0,0.5-0.2,0.5-0.5
		c0-0.3-0.2-0.5-0.5-0.5s-0.5,0.2-0.5,0.5C21.5,14.5,21.7,14.8,22,14.8z"/>
	
		<linearGradient id="SVGID_00000137844180633221238120000003926523129596088981_" gradientUnits="userSpaceOnUse" x1="32.6692" y1="51.7402" x2="32.6692" y2="36.7402" gradientTransform="matrix(1 0 0 -1 -8.3622 60.8347)">
		<stop  offset="0" style="stop-color:#1F90FF;stop-opacity:0"/>
		<stop  offset="1" style="stop-color:#1F90FF"/>
	</linearGradient>
	<path style="fill:url(#SVGID_00000137844180633221238120000003926523129596088981_);" d="M24.3,14.8c0.3,0,0.5-0.2,0.5-0.5
		c0-0.3-0.2-0.5-0.5-0.5s-0.5,0.2-0.5,0.5C23.8,14.5,24,14.8,24.3,14.8z"/>
	
		<linearGradient id="SVGID_00000073002579800538107920000004327015821211258500_" gradientUnits="userSpaceOnUse" x1="34.9793" y1="51.7402" x2="34.9793" y2="36.7402" gradientTransform="matrix(1 0 0 -1 -8.3622 60.8347)">
		<stop  offset="0" style="stop-color:#1F90FF;stop-opacity:0"/>
		<stop  offset="1" style="stop-color:#1F90FF"/>
	</linearGradient>
	<path style="fill:url(#SVGID_00000073002579800538107920000004327015821211258500_);" d="M26.6,14.8c0.3,0,0.5-0.2,0.5-0.5
		c0-0.3-0.2-0.5-0.5-0.5s-0.5,0.2-0.5,0.5C26.1,14.5,26.3,14.8,26.6,14.8z"/>
	
		<linearGradient id="SVGID_00000166658561082503533550000002052754000389498805_" gradientUnits="userSpaceOnUse" x1="14.1879" y1="51.7402" x2="14.1879" y2="36.7402" gradientTransform="matrix(1 0 0 -1 -8.3622 60.8347)">
		<stop  offset="0" style="stop-color:#1F90FF;stop-opacity:0"/>
		<stop  offset="1" style="stop-color:#1F90FF"/>
	</linearGradient>
	<path style="fill:url(#SVGID_00000166658561082503533550000002052754000389498805_);" d="M5.8,17.2c0.3,0,0.6-0.3,0.6-0.6
		c0-0.3-0.3-0.6-0.6-0.6c-0.3,0-0.6,0.3-0.6,0.6C5.2,16.9,5.5,17.2,5.8,17.2z"/>
	
		<linearGradient id="SVGID_00000023242353775617009390000008972512884239575698_" gradientUnits="userSpaceOnUse" x1="16.4981" y1="51.7402" x2="16.4981" y2="36.7402" gradientTransform="matrix(1 0 0 -1 -8.3622 60.8347)">
		<stop  offset="0" style="stop-color:#1F90FF;stop-opacity:0"/>
		<stop  offset="1" style="stop-color:#1F90FF"/>
	</linearGradient>
	<path style="fill:url(#SVGID_00000023242353775617009390000008972512884239575698_);" d="M8.1,17.2c0.3,0,0.6-0.3,0.6-0.6
		c0-0.3-0.3-0.6-0.6-0.6c-0.3,0-0.6,0.3-0.6,0.6C7.5,16.9,7.8,17.2,8.1,17.2z"/>
	
		<linearGradient id="SVGID_00000047770790496428669470000017920171756758295960_" gradientUnits="userSpaceOnUse" x1="18.8083" y1="51.7402" x2="18.8083" y2="36.7402" gradientTransform="matrix(1 0 0 -1 -8.3622 60.8347)">
		<stop  offset="0" style="stop-color:#1F90FF;stop-opacity:0"/>
		<stop  offset="1" style="stop-color:#1F90FF"/>
	</linearGradient>
	<path style="fill:url(#SVGID_00000047770790496428669470000017920171756758295960_);" d="M10.4,17.2c0.3,0,0.6-0.3,0.6-0.6
		c0-0.3-0.3-0.6-0.6-0.6c-0.3,0-0.6,0.3-0.6,0.6C9.8,16.9,10.1,17.2,10.4,17.2z"/>
	
		<linearGradient id="SVGID_00000015347364780691769610000000635184757342505606_" gradientUnits="userSpaceOnUse" x1="21.1184" y1="51.7402" x2="21.1184" y2="36.7402" gradientTransform="matrix(1 0 0 -1 -8.3622 60.8347)">
		<stop  offset="0" style="stop-color:#1F90FF;stop-opacity:0"/>
		<stop  offset="1" style="stop-color:#1F90FF"/>
	</linearGradient>
	<path style="fill:url(#SVGID_00000015347364780691769610000000635184757342505606_);" d="M12.8,17.2c0.3,0,0.6-0.3,0.6-0.6
		c0-0.3-0.3-0.6-0.6-0.6s-0.6,0.3-0.6,0.6C12.1,16.9,12.4,17.2,12.8,17.2z"/>
	
		<linearGradient id="SVGID_00000108292975784119789530000003254670647361295505_" gradientUnits="userSpaceOnUse" x1="23.4285" y1="51.7402" x2="23.4285" y2="36.7402" gradientTransform="matrix(1 0 0 -1 -8.3622 60.8347)">
		<stop  offset="0" style="stop-color:#1F90FF;stop-opacity:0"/>
		<stop  offset="1" style="stop-color:#1F90FF"/>
	</linearGradient>
	<path style="fill:url(#SVGID_00000108292975784119789530000003254670647361295505_);" d="M15.1,17.2c0.3,0,0.6-0.3,0.6-0.6
		c0-0.3-0.3-0.6-0.6-0.6c-0.3,0-0.6,0.3-0.6,0.6C14.5,16.9,14.7,17.2,15.1,17.2z"/>
	
		<linearGradient id="SVGID_00000016780307939648568120000008267282699028105112_" gradientUnits="userSpaceOnUse" x1="25.7387" y1="51.7402" x2="25.7387" y2="36.7402" gradientTransform="matrix(1 0 0 -1 -8.3622 60.8347)">
		<stop  offset="0" style="stop-color:#1F90FF;stop-opacity:0"/>
		<stop  offset="1" style="stop-color:#1F90FF"/>
	</linearGradient>
	<path style="fill:url(#SVGID_00000016780307939648568120000008267282699028105112_);" d="M17.4,17.2c0.3,0,0.6-0.3,0.6-0.6
		c0-0.3-0.3-0.6-0.6-0.6c-0.3,0-0.6,0.3-0.6,0.6C16.8,16.9,17,17.2,17.4,17.2z"/>
	
		<linearGradient id="SVGID_00000008837674903183181690000003585410426922311562_" gradientUnits="userSpaceOnUse" x1="28.0488" y1="51.7402" x2="28.0488" y2="36.7402" gradientTransform="matrix(1 0 0 -1 -8.3622 60.8347)">
		<stop  offset="0" style="stop-color:#1F90FF;stop-opacity:0"/>
		<stop  offset="1" style="stop-color:#1F90FF"/>
	</linearGradient>
	<path style="fill:url(#SVGID_00000008837674903183181690000003585410426922311562_);" d="M19.7,17.2c0.3,0,0.6-0.3,0.6-0.6
		c0-0.3-0.3-0.6-0.6-0.6c-0.3,0-0.6,0.3-0.6,0.6C19.1,16.9,19.3,17.2,19.7,17.2z"/>
	
		<linearGradient id="SVGID_00000164490969777927981150000009839144240304859264_" gradientUnits="userSpaceOnUse" x1="30.359" y1="51.7402" x2="30.359" y2="36.7402" gradientTransform="matrix(1 0 0 -1 -8.3622 60.8347)">
		<stop  offset="0" style="stop-color:#1F90FF;stop-opacity:0"/>
		<stop  offset="1" style="stop-color:#1F90FF"/>
	</linearGradient>
	<path style="fill:url(#SVGID_00000164490969777927981150000009839144240304859264_);" d="M22,17.2c0.3,0,0.6-0.3,0.6-0.6
		c0-0.3-0.3-0.6-0.6-0.6s-0.6,0.3-0.6,0.6C21.4,16.9,21.7,17.2,22,17.2z"/>
	
		<linearGradient id="SVGID_00000062160458084031603760000014726500948509180341_" gradientUnits="userSpaceOnUse" x1="32.6691" y1="51.7402" x2="32.6691" y2="36.7402" gradientTransform="matrix(1 0 0 -1 -8.3622 60.8347)">
		<stop  offset="0" style="stop-color:#1F90FF;stop-opacity:0"/>
		<stop  offset="1" style="stop-color:#1F90FF"/>
	</linearGradient>
	<path style="fill:url(#SVGID_00000062160458084031603760000014726500948509180341_);" d="M24.3,17.2c0.3,0,0.6-0.3,0.6-0.6
		c0-0.3-0.3-0.6-0.6-0.6c-0.3,0-0.6,0.3-0.6,0.6C23.7,16.9,24,17.2,24.3,17.2z"/>
	
		<linearGradient id="SVGID_00000181074163869775764040000002509168713097018260_" gradientUnits="userSpaceOnUse" x1="34.9793" y1="51.7402" x2="34.9793" y2="36.7402" gradientTransform="matrix(1 0 0 -1 -8.3622 60.8347)">
		<stop  offset="0" style="stop-color:#1F90FF;stop-opacity:0"/>
		<stop  offset="1" style="stop-color:#1F90FF"/>
	</linearGradient>
	<path style="fill:url(#SVGID_00000181074163869775764040000002509168713097018260_);" d="M26.6,17.2c0.3,0,0.6-0.3,0.6-0.6
		c0-0.3-0.3-0.6-0.6-0.6S26,16.2,26,16.6C26,16.9,26.3,17.2,26.6,17.2z"/>
	
		<linearGradient id="SVGID_00000023959740331841192960000010056414217769921673_" gradientUnits="userSpaceOnUse" x1="37.2894" y1="51.7402" x2="37.2894" y2="36.7402" gradientTransform="matrix(1 0 0 -1 -8.3622 60.8347)">
		<stop  offset="0" style="stop-color:#1F90FF;stop-opacity:0"/>
		<stop  offset="1" style="stop-color:#1F90FF"/>
	</linearGradient>
	<path style="fill:url(#SVGID_00000023959740331841192960000010056414217769921673_);" d="M28.9,17.2c0.3,0,0.6-0.3,0.6-0.6
		c0-0.3-0.3-0.6-0.6-0.6c-0.3,0-0.6,0.3-0.6,0.6C28.3,16.9,28.6,17.2,28.9,17.2z"/>
	
		<linearGradient id="SVGID_00000149368370048134118620000012324331407944337338_" gradientUnits="userSpaceOnUse" x1="14.1879" y1="51.7402" x2="14.1879" y2="36.7402" gradientTransform="matrix(1 0 0 -1 -8.3622 60.8347)">
		<stop  offset="0" style="stop-color:#1F90FF;stop-opacity:0"/>
		<stop  offset="1" style="stop-color:#1F90FF"/>
	</linearGradient>
	<path style="fill:url(#SVGID_00000149368370048134118620000012324331407944337338_);" d="M5.8,19.6c0.4,0,0.7-0.3,0.7-0.7
		c0-0.4-0.3-0.7-0.7-0.7c-0.4,0-0.7,0.3-0.7,0.7C5.1,19.3,5.5,19.6,5.8,19.6z"/>
	
		<linearGradient id="SVGID_00000024690138885424682540000017285185642509372826_" gradientUnits="userSpaceOnUse" x1="16.4981" y1="51.7402" x2="16.4981" y2="36.7402" gradientTransform="matrix(1 0 0 -1 -8.3622 60.8347)">
		<stop  offset="0" style="stop-color:#1F90FF;stop-opacity:0"/>
		<stop  offset="1" style="stop-color:#1F90FF"/>
	</linearGradient>
	<path style="fill:url(#SVGID_00000024690138885424682540000017285185642509372826_);" d="M8.1,19.6c0.4,0,0.7-0.3,0.7-0.7
		c0-0.4-0.3-0.7-0.7-0.7c-0.4,0-0.7,0.3-0.7,0.7C7.5,19.3,7.8,19.6,8.1,19.6z"/>
	
		<linearGradient id="SVGID_00000183219175078098547980000012728325657619218837_" gradientUnits="userSpaceOnUse" x1="18.8082" y1="51.7402" x2="18.8082" y2="36.7402" gradientTransform="matrix(1 0 0 -1 -8.3622 60.8347)">
		<stop  offset="0" style="stop-color:#1F90FF;stop-opacity:0"/>
		<stop  offset="1" style="stop-color:#1F90FF"/>
	</linearGradient>
	<path style="fill:url(#SVGID_00000183219175078098547980000012728325657619218837_);" d="M10.4,19.6c0.4,0,0.7-0.3,0.7-0.7
		c0-0.4-0.3-0.7-0.7-0.7c-0.4,0-0.7,0.3-0.7,0.7C9.8,19.3,10.1,19.6,10.4,19.6z"/>
	
		<linearGradient id="SVGID_00000103971512399989752730000002395634546518808488_" gradientUnits="userSpaceOnUse" x1="21.1184" y1="51.7402" x2="21.1184" y2="36.7402" gradientTransform="matrix(1 0 0 -1 -8.3622 60.8347)">
		<stop  offset="0" style="stop-color:#1F90FF;stop-opacity:0"/>
		<stop  offset="1" style="stop-color:#1F90FF"/>
	</linearGradient>
	<path style="fill:url(#SVGID_00000103971512399989752730000002395634546518808488_);" d="M12.8,19.6c0.4,0,0.7-0.3,0.7-0.7
		c0-0.4-0.3-0.7-0.7-0.7s-0.7,0.3-0.7,0.7C12.1,19.3,12.4,19.6,12.8,19.6z"/>
	
		<linearGradient id="SVGID_00000137813164354862433750000012140458240977619644_" gradientUnits="userSpaceOnUse" x1="23.4285" y1="51.7402" x2="23.4285" y2="36.7402" gradientTransform="matrix(1 0 0 -1 -8.3622 60.8347)">
		<stop  offset="0" style="stop-color:#1F90FF;stop-opacity:0"/>
		<stop  offset="1" style="stop-color:#1F90FF"/>
	</linearGradient>
	<path style="fill:url(#SVGID_00000137813164354862433750000012140458240977619644_);" d="M15.1,19.6c0.4,0,0.7-0.3,0.7-0.7
		c0-0.4-0.3-0.7-0.7-0.7c-0.4,0-0.7,0.3-0.7,0.7C14.4,19.3,14.7,19.6,15.1,19.6z"/>
	
		<linearGradient id="SVGID_00000023245659461750940760000009377642936839327884_" gradientUnits="userSpaceOnUse" x1="25.7387" y1="51.7402" x2="25.7387" y2="36.7402" gradientTransform="matrix(1 0 0 -1 -8.3622 60.8347)">
		<stop  offset="0" style="stop-color:#1F90FF;stop-opacity:0"/>
		<stop  offset="1" style="stop-color:#1F90FF"/>
	</linearGradient>
	<path style="fill:url(#SVGID_00000023245659461750940760000009377642936839327884_);" d="M17.4,19.6c0.4,0,0.7-0.3,0.7-0.7
		c0-0.4-0.3-0.7-0.7-0.7s-0.7,0.3-0.7,0.7C16.7,19.3,17,19.6,17.4,19.6z"/>
	
		<linearGradient id="SVGID_00000029724668959333741360000008001730095086488717_" gradientUnits="userSpaceOnUse" x1="28.0489" y1="51.7402" x2="28.0489" y2="36.7402" gradientTransform="matrix(1 0 0 -1 -8.3622 60.8347)">
		<stop  offset="0" style="stop-color:#1F90FF;stop-opacity:0"/>
		<stop  offset="1" style="stop-color:#1F90FF"/>
	</linearGradient>
	<path style="fill:url(#SVGID_00000029724668959333741360000008001730095086488717_);" d="M19.7,19.6c0.4,0,0.7-0.3,0.7-0.7
		c0-0.4-0.3-0.7-0.7-0.7S19,18.6,19,18.9C19,19.3,19.3,19.6,19.7,19.6z"/>
	
		<linearGradient id="SVGID_00000031207060972142921840000007424755975036221097_" gradientUnits="userSpaceOnUse" x1="30.359" y1="51.7402" x2="30.359" y2="36.7402" gradientTransform="matrix(1 0 0 -1 -8.3622 60.8347)">
		<stop  offset="0" style="stop-color:#1F90FF;stop-opacity:0"/>
		<stop  offset="1" style="stop-color:#1F90FF"/>
	</linearGradient>
	<path style="fill:url(#SVGID_00000031207060972142921840000007424755975036221097_);" d="M22,19.6c0.4,0,0.7-0.3,0.7-0.7
		c0-0.4-0.3-0.7-0.7-0.7s-0.7,0.3-0.7,0.7C21.3,19.3,21.6,19.6,22,19.6z"/>
	
		<linearGradient id="SVGID_00000063603628056615373820000013107164823922753162_" gradientUnits="userSpaceOnUse" x1="32.6692" y1="51.7402" x2="32.6692" y2="36.7402" gradientTransform="matrix(1 0 0 -1 -8.3622 60.8347)">
		<stop  offset="0" style="stop-color:#1F90FF;stop-opacity:0"/>
		<stop  offset="1" style="stop-color:#1F90FF"/>
	</linearGradient>
	<path style="fill:url(#SVGID_00000063603628056615373820000013107164823922753162_);" d="M24.3,19.6c0.4,0,0.7-0.3,0.7-0.7
		c0-0.4-0.3-0.7-0.7-0.7s-0.7,0.3-0.7,0.7C23.6,19.3,23.9,19.6,24.3,19.6z"/>
	
		<linearGradient id="SVGID_00000068678549556008077790000003528100156690772136_" gradientUnits="userSpaceOnUse" x1="34.9793" y1="51.7402" x2="34.9793" y2="36.7402" gradientTransform="matrix(1 0 0 -1 -8.3622 60.8347)">
		<stop  offset="0" style="stop-color:#1F90FF;stop-opacity:0"/>
		<stop  offset="1" style="stop-color:#1F90FF"/>
	</linearGradient>
	<path style="fill:url(#SVGID_00000068678549556008077790000003528100156690772136_);" d="M26.6,19.6c0.4,0,0.7-0.3,0.7-0.7
		c0-0.4-0.3-0.7-0.7-0.7s-0.7,0.3-0.7,0.7C25.9,19.3,26.2,19.6,26.6,19.6z"/>
	
		<linearGradient id="SVGID_00000174576159666395417610000001633277274289124019_" gradientUnits="userSpaceOnUse" x1="37.2895" y1="51.7402" x2="37.2895" y2="36.7402" gradientTransform="matrix(1 0 0 -1 -8.3622 60.8347)">
		<stop  offset="0" style="stop-color:#1F90FF;stop-opacity:0"/>
		<stop  offset="1" style="stop-color:#1F90FF"/>
	</linearGradient>
	<path style="fill:url(#SVGID_00000174576159666395417610000001633277274289124019_);" d="M28.9,19.6c0.4,0,0.7-0.3,0.7-0.7
		c0-0.4-0.3-0.7-0.7-0.7c-0.4,0-0.7,0.3-0.7,0.7C28.3,19.3,28.6,19.6,28.9,19.6z"/>
	
		<linearGradient id="SVGID_00000057114943438332894860000001954892679966237597_" gradientUnits="userSpaceOnUse" x1="39.5996" y1="51.7402" x2="39.5996" y2="36.7402" gradientTransform="matrix(1 0 0 -1 -8.3622 60.8347)">
		<stop  offset="0" style="stop-color:#1F90FF;stop-opacity:0"/>
		<stop  offset="1" style="stop-color:#1F90FF"/>
	</linearGradient>
	<path style="fill:url(#SVGID_00000057114943438332894860000001954892679966237597_);" d="M31.2,19.6c0.4,0,0.7-0.3,0.7-0.7
		c0-0.4-0.3-0.7-0.7-0.7s-0.7,0.3-0.7,0.7C30.6,19.3,30.9,19.6,31.2,19.6z"/>
	
		<linearGradient id="SVGID_00000018942014597166947290000013782542797594699140_" gradientUnits="userSpaceOnUse" x1="11.8778" y1="51.7402" x2="11.8778" y2="36.7402" gradientTransform="matrix(1 0 0 -1 -8.3622 60.8347)">
		<stop  offset="0" style="stop-color:#1F90FF;stop-opacity:0"/>
		<stop  offset="1" style="stop-color:#1F90FF"/>
	</linearGradient>
	<path style="fill:url(#SVGID_00000018942014597166947290000013782542797594699140_);" d="M3.5,21.8c0.3,0,0.5-0.2,0.5-0.5
		s-0.2-0.5-0.5-0.5C3.2,20.8,3,21,3,21.3S3.2,21.8,3.5,21.8z"/>
	
		<linearGradient id="SVGID_00000183929349050047754230000005887682288413323444_" gradientUnits="userSpaceOnUse" x1="14.1879" y1="51.7402" x2="14.1879" y2="36.7402" gradientTransform="matrix(1 0 0 -1 -8.3622 60.8347)">
		<stop  offset="0" style="stop-color:#1F90FF;stop-opacity:0"/>
		<stop  offset="1" style="stop-color:#1F90FF"/>
	</linearGradient>
	<path style="fill:url(#SVGID_00000183929349050047754230000005887682288413323444_);" d="M5.8,22.1c0.4,0,0.8-0.4,0.8-0.8
		c0-0.4-0.3-0.8-0.8-0.8s-0.8,0.4-0.8,0.8C5.1,21.7,5.4,22.1,5.8,22.1z"/>
	
		<linearGradient id="SVGID_00000093858482687588188380000010418184255136364673_" gradientUnits="userSpaceOnUse" x1="16.4981" y1="51.7402" x2="16.4981" y2="36.7402" gradientTransform="matrix(1 0 0 -1 -8.3622 60.8347)">
		<stop  offset="0" style="stop-color:#1F90FF;stop-opacity:0"/>
		<stop  offset="1" style="stop-color:#1F90FF"/>
	</linearGradient>
	<path style="fill:url(#SVGID_00000093858482687588188380000010418184255136364673_);" d="M8.1,22.1c0.4,0,0.8-0.3,0.8-0.8
		c0-0.4-0.3-0.8-0.8-0.8c-0.4,0-0.8,0.3-0.8,0.8C7.4,21.7,7.7,22.1,8.1,22.1z"/>
	
		<linearGradient id="SVGID_00000015313485784943727220000007570880481368470917_" gradientUnits="userSpaceOnUse" x1="18.8083" y1="51.7402" x2="18.8083" y2="36.7402" gradientTransform="matrix(1 0 0 -1 -8.3622 60.8347)">
		<stop  offset="0" style="stop-color:#1F90FF;stop-opacity:0"/>
		<stop  offset="1" style="stop-color:#1F90FF"/>
	</linearGradient>
	<path style="fill:url(#SVGID_00000015313485784943727220000007570880481368470917_);" d="M10.4,22.1c0.4,0,0.8-0.3,0.8-0.8
		c0-0.4-0.3-0.8-0.8-0.8c-0.4,0-0.8,0.3-0.8,0.8C9.7,21.7,10,22.1,10.4,22.1z"/>
	
		<linearGradient id="SVGID_00000067917899944269741180000002874851954276247739_" gradientUnits="userSpaceOnUse" x1="21.1184" y1="51.7402" x2="21.1184" y2="36.7402" gradientTransform="matrix(1 0 0 -1 -8.3622 60.8347)">
		<stop  offset="0" style="stop-color:#1F90FF;stop-opacity:0"/>
		<stop  offset="1" style="stop-color:#1F90FF"/>
	</linearGradient>
	<path style="fill:url(#SVGID_00000067917899944269741180000002874851954276247739_);" d="M12.8,22.1c0.4,0,0.8-0.3,0.8-0.8
		c0-0.4-0.3-0.8-0.8-0.8S12,20.9,12,21.3C12,21.7,12.3,22.1,12.8,22.1z"/>
	
		<linearGradient id="SVGID_00000042700125973550949360000010059413051585847721_" gradientUnits="userSpaceOnUse" x1="23.4286" y1="51.7402" x2="23.4286" y2="36.7402" gradientTransform="matrix(1 0 0 -1 -8.3622 60.8347)">
		<stop  offset="0" style="stop-color:#1F90FF;stop-opacity:0"/>
		<stop  offset="1" style="stop-color:#1F90FF"/>
	</linearGradient>
	<path style="fill:url(#SVGID_00000042700125973550949360000010059413051585847721_);" d="M15.1,22.1c0.4,0,0.8-0.3,0.8-0.8
		c0-0.4-0.3-0.8-0.8-0.8c-0.4,0-0.8,0.3-0.8,0.8C14.3,21.7,14.6,22.1,15.1,22.1z"/>
	
		<linearGradient id="SVGID_00000009575680612260645560000003752888816662590632_" gradientUnits="userSpaceOnUse" x1="25.7387" y1="51.7402" x2="25.7387" y2="36.7402" gradientTransform="matrix(1 0 0 -1 -8.3622 60.8347)">
		<stop  offset="0" style="stop-color:#1F90FF;stop-opacity:0"/>
		<stop  offset="1" style="stop-color:#1F90FF"/>
	</linearGradient>
	<path style="fill:url(#SVGID_00000009575680612260645560000003752888816662590632_);" d="M17.4,22.1c0.4,0,0.8-0.3,0.8-0.8
		c0-0.4-0.3-0.8-0.8-0.8s-0.8,0.3-0.8,0.8C16.6,21.7,17,22.1,17.4,22.1z"/>
	
		<linearGradient id="SVGID_00000083049946056621086850000006635007917655324041_" gradientUnits="userSpaceOnUse" x1="28.0489" y1="51.7402" x2="28.0489" y2="36.7402" gradientTransform="matrix(1 0 0 -1 -8.3622 60.8347)">
		<stop  offset="0" style="stop-color:#1F90FF;stop-opacity:0"/>
		<stop  offset="1" style="stop-color:#1F90FF"/>
	</linearGradient>
	<path style="fill:url(#SVGID_00000083049946056621086850000006635007917655324041_);" d="M19.7,22.1c0.4,0,0.8-0.3,0.8-0.8
		c0-0.4-0.3-0.8-0.8-0.8c-0.4,0-0.8,0.3-0.8,0.8C18.9,21.7,19.3,22.1,19.7,22.1z"/>
	
		<linearGradient id="SVGID_00000161627980447163884050000012959635768594375562_" gradientUnits="userSpaceOnUse" x1="30.359" y1="51.7402" x2="30.359" y2="36.7402" gradientTransform="matrix(1 0 0 -1 -8.3622 60.8347)">
		<stop  offset="0" style="stop-color:#1F90FF;stop-opacity:0"/>
		<stop  offset="1" style="stop-color:#1F90FF"/>
	</linearGradient>
	<path style="fill:url(#SVGID_00000161627980447163884050000012959635768594375562_);" d="M22,22.1c0.4,0,0.8-0.3,0.8-0.8
		c0-0.4-0.3-0.8-0.8-0.8s-0.8,0.3-0.8,0.8C21.2,21.7,21.6,22.1,22,22.1z"/>
	
		<linearGradient id="SVGID_00000136401220326932256760000006168912852020437651_" gradientUnits="userSpaceOnUse" x1="32.6692" y1="51.7402" x2="32.6692" y2="36.7402" gradientTransform="matrix(1 0 0 -1 -8.3622 60.8347)">
		<stop  offset="0" style="stop-color:#1F90FF;stop-opacity:0"/>
		<stop  offset="1" style="stop-color:#1F90FF"/>
	</linearGradient>
	<path style="fill:url(#SVGID_00000136401220326932256760000006168912852020437651_);" d="M24.3,22.1c0.4,0,0.8-0.3,0.8-0.8
		c0-0.4-0.3-0.8-0.8-0.8c-0.4,0-0.8,0.3-0.8,0.8C23.5,21.7,23.9,22.1,24.3,22.1z"/>
	
		<linearGradient id="SVGID_00000061429824283023449170000005566162444413904316_" gradientUnits="userSpaceOnUse" x1="34.9793" y1="51.7402" x2="34.9793" y2="36.7402" gradientTransform="matrix(1 0 0 -1 -8.3622 60.8347)">
		<stop  offset="0" style="stop-color:#1F90FF;stop-opacity:0"/>
		<stop  offset="1" style="stop-color:#1F90FF"/>
	</linearGradient>
	<path style="fill:url(#SVGID_00000061429824283023449170000005566162444413904316_);" d="M26.6,22.1c0.4,0,0.8-0.3,0.8-0.8
		c0-0.4-0.3-0.8-0.8-0.8s-0.8,0.3-0.8,0.8C25.9,21.7,26.2,22.1,26.6,22.1z"/>
	
		<linearGradient id="SVGID_00000065063907598445259320000006374527385575078577_" gradientUnits="userSpaceOnUse" x1="37.2895" y1="51.7402" x2="37.2895" y2="36.7402" gradientTransform="matrix(1 0 0 -1 -8.3622 60.8347)">
		<stop  offset="0" style="stop-color:#1F90FF;stop-opacity:0"/>
		<stop  offset="1" style="stop-color:#1F90FF"/>
	</linearGradient>
	<path style="fill:url(#SVGID_00000065063907598445259320000006374527385575078577_);" d="M28.9,22.1c0.4,0,0.8-0.3,0.8-0.8
		c0-0.4-0.3-0.8-0.8-0.8c-0.4,0-0.8,0.3-0.8,0.8C28.2,21.7,28.5,22.1,28.9,22.1z"/>
	
		<linearGradient id="SVGID_00000082344019883206656780000004869976268644368016_" gradientUnits="userSpaceOnUse" x1="39.5996" y1="51.7402" x2="39.5996" y2="36.7402" gradientTransform="matrix(1 0 0 -1 -8.3622 60.8347)">
		<stop  offset="0" style="stop-color:#1F90FF;stop-opacity:0"/>
		<stop  offset="1" style="stop-color:#1F90FF"/>
	</linearGradient>
	<path style="fill:url(#SVGID_00000082344019883206656780000004869976268644368016_);" d="M31.2,22.1c0.4,0,0.8-0.3,0.8-0.8
		s-0.3-0.8-0.8-0.8s-0.8,0.3-0.8,0.8S30.8,22.1,31.2,22.1z"/>
	
		<linearGradient id="SVGID_00000007422600476947351890000000231945035817009068_" gradientUnits="userSpaceOnUse" x1="11.8778" y1="51.7402" x2="11.8778" y2="36.7402" gradientTransform="matrix(1 0 0 -1 -8.3622 60.8347)">
		<stop  offset="0" style="stop-color:#1F90FF;stop-opacity:0"/>
		<stop  offset="1" style="stop-color:#1F90FF"/>
	</linearGradient>
	<path style="fill:url(#SVGID_00000007422600476947351890000000231945035817009068_);" d="M3.5,24.1c0.3,0,0.5-0.2,0.5-0.5
		c0-0.3-0.2-0.5-0.5-0.5c-0.3,0-0.5,0.2-0.5,0.5C3.1,23.9,3.3,24.1,3.5,24.1z"/>
	
		<linearGradient id="SVGID_00000098929741657930349300000016252756901769757836_" gradientUnits="userSpaceOnUse" x1="14.1879" y1="51.7402" x2="14.1879" y2="36.7402" gradientTransform="matrix(1 0 0 -1 -8.3622 60.8347)">
		<stop  offset="0" style="stop-color:#1F90FF;stop-opacity:0"/>
		<stop  offset="1" style="stop-color:#1F90FF"/>
	</linearGradient>
	<path style="fill:url(#SVGID_00000098929741657930349300000016252756901769757836_);" d="M5.8,24.1c0.3,0,0.5-0.2,0.5-0.5
		c0-0.3-0.2-0.5-0.5-0.5c-0.3,0-0.5,0.2-0.5,0.5C5.4,23.9,5.6,24.1,5.8,24.1z"/>
	
		<linearGradient id="SVGID_00000041295642998903071240000008364096250889433757_" gradientUnits="userSpaceOnUse" x1="16.4981" y1="51.7402" x2="16.4981" y2="36.7402" gradientTransform="matrix(1 0 0 -1 -8.3622 60.8347)">
		<stop  offset="0" style="stop-color:#1F90FF;stop-opacity:0"/>
		<stop  offset="1" style="stop-color:#1F90FF"/>
	</linearGradient>
	<path style="fill:url(#SVGID_00000041295642998903071240000008364096250889433757_);" d="M8.1,24.1c0.3,0,0.5-0.2,0.5-0.5
		c0-0.3-0.2-0.5-0.5-0.5c-0.3,0-0.5,0.2-0.5,0.5C7.7,23.9,7.9,24.1,8.1,24.1z"/>
	
		<linearGradient id="SVGID_00000021106441617557829820000002172276608899758213_" gradientUnits="userSpaceOnUse" x1="18.8083" y1="51.7402" x2="18.8083" y2="36.7402" gradientTransform="matrix(1 0 0 -1 -8.3622 60.8347)">
		<stop  offset="0" style="stop-color:#1F90FF;stop-opacity:0"/>
		<stop  offset="1" style="stop-color:#1F90FF"/>
	</linearGradient>
	<path style="fill:url(#SVGID_00000021106441617557829820000002172276608899758213_);" d="M10.4,24.1c0.3,0,0.5-0.2,0.5-0.5
		c0-0.3-0.2-0.5-0.5-0.5c-0.3,0-0.5,0.2-0.5,0.5C10,23.9,10.2,24.1,10.4,24.1z"/>
	
		<linearGradient id="SVGID_00000114061822700934201040000001743406137372602789_" gradientUnits="userSpaceOnUse" x1="21.1184" y1="51.7402" x2="21.1184" y2="36.7402" gradientTransform="matrix(1 0 0 -1 -8.3622 60.8347)">
		<stop  offset="0" style="stop-color:#1F90FF;stop-opacity:0"/>
		<stop  offset="1" style="stop-color:#1F90FF"/>
	</linearGradient>
	<path style="fill:url(#SVGID_00000114061822700934201040000001743406137372602789_);" d="M12.8,24.1c0.3,0,0.5-0.2,0.5-0.5
		c0-0.3-0.2-0.5-0.5-0.5s-0.5,0.2-0.5,0.5C12.3,23.9,12.5,24.1,12.8,24.1z"/>
	
		<linearGradient id="SVGID_00000034048907275737499610000008657498139454342795_" gradientUnits="userSpaceOnUse" x1="23.4286" y1="51.7402" x2="23.4286" y2="36.7402" gradientTransform="matrix(1 0 0 -1 -8.3622 60.8347)">
		<stop  offset="0" style="stop-color:#1F90FF;stop-opacity:0"/>
		<stop  offset="1" style="stop-color:#1F90FF"/>
	</linearGradient>
	<path style="fill:url(#SVGID_00000034048907275737499610000008657498139454342795_);" d="M15.1,24.1c0.3,0,0.5-0.2,0.5-0.5
		c0-0.3-0.2-0.5-0.5-0.5c-0.3,0-0.5,0.2-0.5,0.5C14.6,23.9,14.8,24.1,15.1,24.1z"/>
	
		<linearGradient id="SVGID_00000089560851000288830550000006659603954463320483_" gradientUnits="userSpaceOnUse" x1="25.7387" y1="51.7402" x2="25.7387" y2="36.7402" gradientTransform="matrix(1 0 0 -1 -8.3622 60.8347)">
		<stop  offset="0" style="stop-color:#1F90FF;stop-opacity:0"/>
		<stop  offset="1" style="stop-color:#1F90FF"/>
	</linearGradient>
	<path style="fill:url(#SVGID_00000089560851000288830550000006659603954463320483_);" d="M17.4,24.1c0.3,0,0.5-0.2,0.5-0.5
		c0-0.3-0.2-0.5-0.5-0.5c-0.3,0-0.5,0.2-0.5,0.5C16.9,23.9,17.1,24.1,17.4,24.1z"/>
	
		<linearGradient id="SVGID_00000096771793368074975260000014345501530924748709_" gradientUnits="userSpaceOnUse" x1="28.0489" y1="51.7402" x2="28.0489" y2="36.7402" gradientTransform="matrix(1 0 0 -1 -8.3622 60.8347)">
		<stop  offset="0" style="stop-color:#1F90FF;stop-opacity:0"/>
		<stop  offset="1" style="stop-color:#1F90FF"/>
	</linearGradient>
	<path style="fill:url(#SVGID_00000096771793368074975260000014345501530924748709_);" d="M19.7,24.1c0.3,0,0.5-0.2,0.5-0.5
		c0-0.3-0.2-0.5-0.5-0.5c-0.3,0-0.5,0.2-0.5,0.5C19.2,23.9,19.4,24.1,19.7,24.1z"/>
	
		<linearGradient id="SVGID_00000043455438925714463680000002738694509626641304_" gradientUnits="userSpaceOnUse" x1="30.359" y1="51.7402" x2="30.359" y2="36.7402" gradientTransform="matrix(1 0 0 -1 -8.3622 60.8347)">
		<stop  offset="0" style="stop-color:#1F90FF;stop-opacity:0"/>
		<stop  offset="1" style="stop-color:#1F90FF"/>
	</linearGradient>
	<path style="fill:url(#SVGID_00000043455438925714463680000002738694509626641304_);" d="M22,24.1c0.3,0,0.5-0.2,0.5-0.5
		c0-0.3-0.2-0.5-0.5-0.5s-0.5,0.2-0.5,0.5C21.5,23.9,21.7,24.1,22,24.1z"/>
	
		<linearGradient id="SVGID_00000139984108885565173850000013111602033885889452_" gradientUnits="userSpaceOnUse" x1="32.6692" y1="51.7402" x2="32.6692" y2="36.7402" gradientTransform="matrix(1 0 0 -1 -8.3622 60.8347)">
		<stop  offset="0" style="stop-color:#1F90FF;stop-opacity:0"/>
		<stop  offset="1" style="stop-color:#1F90FF"/>
	</linearGradient>
	<path style="fill:url(#SVGID_00000139984108885565173850000013111602033885889452_);" d="M24.3,24.1c0.3,0,0.5-0.2,0.5-0.5
		c0-0.3-0.2-0.5-0.5-0.5c-0.3,0-0.5,0.2-0.5,0.5C23.8,23.9,24.1,24.1,24.3,24.1z"/>
	
		<linearGradient id="SVGID_00000134962888887003012530000008800518834606844073_" gradientUnits="userSpaceOnUse" x1="34.9793" y1="51.7402" x2="34.9793" y2="36.7402" gradientTransform="matrix(1 0 0 -1 -8.3622 60.8347)">
		<stop  offset="0" style="stop-color:#1F90FF;stop-opacity:0"/>
		<stop  offset="1" style="stop-color:#1F90FF"/>
	</linearGradient>
	<path style="fill:url(#SVGID_00000134962888887003012530000008800518834606844073_);" d="M26.6,24.1c0.3,0,0.5-0.2,0.5-0.5
		c0-0.3-0.2-0.5-0.5-0.5s-0.5,0.2-0.5,0.5C26.2,23.9,26.4,24.1,26.6,24.1z"/>
	
		<linearGradient id="SVGID_00000067238135629281702990000009742873552652475811_" gradientUnits="userSpaceOnUse" x1="37.2895" y1="51.7402" x2="37.2895" y2="36.7402" gradientTransform="matrix(1 0 0 -1 -8.3622 60.8347)">
		<stop  offset="0" style="stop-color:#1F90FF;stop-opacity:0"/>
		<stop  offset="1" style="stop-color:#1F90FF"/>
	</linearGradient>
	<path style="fill:url(#SVGID_00000067238135629281702990000009742873552652475811_);" d="M28.9,24.1c0.3,0,0.5-0.2,0.5-0.5
		c0-0.3-0.2-0.5-0.5-0.5c-0.3,0-0.5,0.2-0.5,0.5C28.5,23.9,28.7,24.1,28.9,24.1z"/>
	
		<linearGradient id="SVGID_00000164497835133247607530000013014055396347155842_" gradientUnits="userSpaceOnUse" x1="39.5996" y1="51.7402" x2="39.5996" y2="36.7402" gradientTransform="matrix(1 0 0 -1 -8.3622 60.8347)">
		<stop  offset="0" style="stop-color:#1F90FF;stop-opacity:0"/>
		<stop  offset="1" style="stop-color:#1F90FF"/>
	</linearGradient>
	<path style="fill:url(#SVGID_00000164497835133247607530000013014055396347155842_);" d="M31.2,24.1c0.3,0,0.5-0.2,0.5-0.5
		c0-0.3-0.2-0.5-0.5-0.5s-0.5,0.2-0.5,0.5C30.8,23.9,31,24.1,31.2,24.1z"/>
	<path class="st71" d="M20.6,7.7c0.1,0.3,0.2,0.6,0.2,0.9h-5.5c0-0.3,0.1-0.6,0.2-0.9c0.1-0.4,0.4-0.8,0.6-1.1
		C16.3,6.3,16.6,6,17,5.8c0.3-0.2,0.7-0.3,1-0.3c0.4,0,0.7,0.1,1,0.3c0.3,0.2,0.6,0.4,0.9,0.7C20.2,6.9,20.4,7.3,20.6,7.7z"/>
	<path class="st71" d="M28.9,13.4c2.8,2.9,4.4,6.7,4.5,10.7H2.5c0.1-4,1.7-7.9,4.5-10.7c2.9-3,6.8-4.6,10.9-4.6S26,10.4,28.9,13.4z"
		/>
	<path class="st71" d="M1.5,27.1h33.1c0.4,0,0.6,0.4,0.5,0.7l-0.9,2.3c-0.1,0.2-0.3,0.3-0.5,0.3H2.4c-0.2,0-0.4-0.1-0.5-0.3L1,27.8
		C0.9,27.5,1.1,27.1,1.5,27.1z"/>
</g>
</svg>
