<?xml version="1.0" encoding="utf-8"?>
<!-- Generator: Adobe Illustrator 26.3.1, SVG Export Plug-In . SVG Version: 6.00 Build 0)  -->
<svg version="1.1" id="Layer_1" xmlns="http://www.w3.org/2000/svg" xmlns:xlink="http://www.w3.org/1999/xlink" x="0px" y="0px"
	 viewBox="0 0 36 36" style="enable-background:new 0 0 36 36;" xml:space="preserve">
<style type="text/css">
	.st0{fill:#000E23;}
</style>
<path class="st0" d="M18,36C8.1,36,0,27.9,0,18S8.1,0,18,0s18,8.1,18,18S27.9,36,18,36z M18,1C8.6,1,1,8.6,1,18s7.6,17,17,17
	s17-7.6,17-17S27.4,1,18,1z"/>
<rect x="9.9" y="14.2" class="st0" width="2.3" height="12.4"/>
<path class="st0" d="M10.9,9.4c-0.8,0-1.4,0.6-1.4,1.4s0.6,1.4,1.4,1.4c0.9,0,1.4-0.6,1.4-1.4C12.4,9.9,11.8,9.3,10.9,9.4z"/>
<path class="st0" d="M22.1,13.9c-2.1,0-3.5,1.2-4.1,2.4h-0.1l-0.2-2.1h-2v3.3v9H18V19c0-0.4,0.1-0.8,0.2-1.1c0.4-1.2,1.6-2.3,3-2.3
	c2.1,0,2.9,1.7,2.9,3.7v7.2h2.3v-7.4C26.4,14.9,23.9,13.9,22.1,13.9z"/>
</svg>
