<?xml version="1.0" encoding="utf-8"?>
<!-- Generator: Adobe Illustrator 26.3.1, SVG Export Plug-In . SVG Version: 6.00 Build 0)  -->
<svg version="1.1" id="eUtfKsV2qQa1" text-rendering="geometricPrecision" shape-rendering="geometricPrecision"
	 xmlns="http://www.w3.org/2000/svg" xmlns:xlink="http://www.w3.org/1999/xlink" x="0px" y="0px" viewBox="0 0 36 36"
	 style="enable-background:new 0 0 36 36;" xml:space="preserve">
<style type="text/css">
	.st0{fill:url(#SVGID_1_);}
	.st1{fill:url(#SVGID_00000047746870588031104600000016539533535142157450_);}
	.st2{fill:url(#SVGID_00000168834247090917844660000009113984662194269061_);}
	.st3{fill:url(#SVGID_00000175317735770789265350000011930424112920405925_);}
	.st4{fill:url(#SVGID_00000101080243256851452430000013079115787433042567_);}
	.st5{fill:url(#SVGID_00000183955838824178970260000008931059865937347983_);}
	.st6{fill:url(#SVGID_00000052076175758055637680000002875253359201512354_);}
	.st7{fill:url(#SVGID_00000005258273831810456300000012966201659713450133_);}
	.st8{fill:url(#SVGID_00000105424437425573304240000015138619399199651200_);}
	.st9{fill:url(#SVGID_00000165213773090085270230000000972508157401612457_);}
	.st10{fill:url(#SVGID_00000026161072531937488490000007393535275450173604_);}
	.st11{fill:url(#SVGID_00000137114921190074410440000007839228576310828463_);}
	.st12{fill:url(#SVGID_00000022560001834074192490000017703313621176384393_);}
	.st13{fill:url(#SVGID_00000005965241373604063920000002395581742236044964_);}
	.st14{fill:url(#SVGID_00000116941647269715948450000011789027815563872189_);}
	.st15{fill:url(#SVGID_00000102522534527543516260000004257201449399371161_);}
	.st16{fill:url(#SVGID_00000170273927587744399800000006602765883206185914_);}
	.st17{fill:url(#SVGID_00000034769692166809992970000002260561805633598084_);}
	.st18{fill:url(#SVGID_00000105398176036675933050000005846426991672611768_);}
	.st19{fill:url(#SVGID_00000006700720038833121780000006011353990749229957_);}
	.st20{fill:url(#SVGID_00000068640545794878406710000003450916117047427985_);}
	.st21{fill:url(#SVGID_00000033345137283908688200000016670558272582476730_);}
	.st22{fill:url(#SVGID_00000162343202653115899710000015867499621982053530_);}
	.st23{fill:url(#SVGID_00000075157223705366863410000006846113977742919309_);}
	.st24{fill:url(#SVGID_00000176024872144596777130000007106471993639459747_);}
	.st25{fill:url(#SVGID_00000070092751048605278190000004626015355948955291_);}
	.st26{fill:url(#SVGID_00000101800582036429234870000002374300546337341348_);}
	.st27{fill:url(#SVGID_00000141447505092697976000000017191415036136565658_);}
	.st28{fill:url(#SVGID_00000114053978797183386050000015801816970560247702_);}
	.st29{fill:url(#SVGID_00000106835171709997689830000016053694774840460965_);}
	.st30{fill:url(#SVGID_00000078027020014803263580000016279456396472964259_);}
	.st31{fill:url(#SVGID_00000163067564762380766550000003604196863833438348_);}
	.st32{fill:url(#SVGID_00000092439978415760996150000014010860909398283137_);}
	.st33{fill:url(#SVGID_00000072994545283014319100000000213641945255528383_);}
	.st34{fill:url(#SVGID_00000041260958028929654760000008106613389552112525_);}
	.st35{fill:url(#SVGID_00000123427445549606253790000009466285248342383285_);}
	.st36{fill:url(#SVGID_00000142887299557457234970000003504699283267278239_);}
	.st37{fill:url(#SVGID_00000008134596243014545560000007604132597530195627_);}
	.st38{fill:url(#SVGID_00000097483109105925750560000002022954590174210450_);}
	.st39{fill:url(#SVGID_00000134250008759739801350000002832308163060198549_);}
	.st40{fill:url(#SVGID_00000018197366891951713950000017371159315237455745_);}
	.st41{fill:url(#SVGID_00000176752885717252304110000010490937920136373398_);}
	.st42{fill:url(#SVGID_00000076593766467475366830000017907599593225781912_);}
	.st43{fill:url(#SVGID_00000025415683820037975290000003898880202535463809_);}
	.st44{fill:url(#SVGID_00000058547143224637985820000013923017136772737715_);}
	.st45{fill:url(#SVGID_00000078765703102118904520000015074344037172164736_);}
	.st46{fill:url(#SVGID_00000159439717556124608450000016090550478297032877_);}
	.st47{fill:url(#SVGID_00000160165665361971986260000010307237634533080203_);}
	.st48{fill:url(#SVGID_00000030455060970061554560000003166886051282828684_);}
	.st49{fill:url(#SVGID_00000137850354530527988230000009002876506020342191_);}
	.st50{fill:url(#SVGID_00000034091241597501904550000008316794077520535460_);}
	.st51{fill:url(#SVGID_00000125564688524486863550000000258793967107702196_);}
	.st52{fill:url(#SVGID_00000086685390794347096590000017641285974916393390_);}
	.st53{fill:url(#SVGID_00000075854632251272589590000001348230029353250699_);}
	.st54{fill:url(#SVGID_00000120521530716966892690000014789680570864554172_);}
	.st55{fill:url(#SVGID_00000062179564479412993910000001518228840257916854_);}
	.st56{fill:url(#SVGID_00000008831946525654353260000013207256442239959982_);}
	.st57{fill:url(#SVGID_00000037681389652757684030000014647666926545023400_);}
	.st58{fill:url(#SVGID_00000119107687438811282750000000927850497034826151_);}
	.st59{fill:url(#SVGID_00000027595011168975407940000002610947659785945533_);}
	.st60{fill:url(#SVGID_00000067949126965323318540000012402997604584924075_);}
	.st61{fill:url(#SVGID_00000181796198731775155650000007687939121497575605_);}
	.st62{fill:url(#SVGID_00000005232959368187650640000008357615465039523492_);}
	.st63{fill:url(#SVGID_00000052826361581340617790000012268125484946486188_);}
	.st64{fill:url(#SVGID_00000137105684529689274610000000511552405972265089_);}
	.st65{fill:url(#SVGID_00000105407144401154361640000003055186152298559678_);}
	.st66{fill:url(#SVGID_00000028295147990064117700000014843125288968022196_);}
	.st67{fill:url(#SVGID_00000088103484996463052820000003768202866499585720_);}
	.st68{fill:url(#SVGID_00000005233760704775366070000009885211342664617345_);}
	.st69{fill:url(#SVGID_00000101063357794123098330000015839273628598021789_);}
	.st70{fill:url(#SVGID_00000124155710480601160120000007684120946780635278_);}
	.st71{fill:url(#SVGID_00000022555268653002967930000009037041105620786826_);}
	.st72{fill:url(#SVGID_00000010270220438561485630000008943184908254437283_);}
	.st73{fill:url(#SVGID_00000049188491590279458780000006771907795512412606_);}
	.st74{fill:url(#SVGID_00000140727665347727368110000005726637445395279039_);}
	.st75{fill:url(#SVGID_00000119108592674442609250000009418263927056839603_);}
	.st76{fill:url(#SVGID_00000089552334378489047880000015469711988059768984_);}
	.st77{fill:none;stroke:#1F90FF;}
	.st78{fill:none;stroke:#1F90FF;stroke-linecap:round;}
</style>
<g>
	
		<linearGradient id="SVGID_1_" gradientUnits="userSpaceOnUse" x1="23.2188" y1="49.674" x2="23.2188" y2="25.8174" gradientTransform="matrix(1 0 0 -1 -8.3622 60.8347)">
		<stop  offset="0" style="stop-color:#1F90FF;stop-opacity:0"/>
		<stop  offset="1" style="stop-color:#1F90FF"/>
	</linearGradient>
	<path class="st0" d="M14.9,12.2c0.3,0,0.5-0.2,0.5-0.5c0-0.3-0.2-0.5-0.5-0.5s-0.5,0.2-0.5,0.5C14.4,11.9,14.6,12.2,14.9,12.2z"/>
	
		<linearGradient id="SVGID_00000099623288076012613760000009275747293024526257_" gradientUnits="userSpaceOnUse" x1="25.7188" y1="49.674" x2="25.7188" y2="25.8174" gradientTransform="matrix(1 0 0 -1 -8.3622 60.8347)">
		<stop  offset="0" style="stop-color:#1F90FF;stop-opacity:0"/>
		<stop  offset="1" style="stop-color:#1F90FF"/>
	</linearGradient>
	<path style="fill:url(#SVGID_00000099623288076012613760000009275747293024526257_);" d="M17.4,12.2c0.3,0,0.5-0.2,0.5-0.5
		c0-0.3-0.2-0.5-0.5-0.5s-0.5,0.2-0.5,0.5C16.9,11.9,17.1,12.2,17.4,12.2z"/>
	
		<linearGradient id="SVGID_00000175299343759571510790000007183779083579132842_" gradientUnits="userSpaceOnUse" x1="28.2188" y1="49.674" x2="28.2188" y2="25.8174" gradientTransform="matrix(1 0 0 -1 -8.3622 60.8347)">
		<stop  offset="0" style="stop-color:#1F90FF;stop-opacity:0"/>
		<stop  offset="1" style="stop-color:#1F90FF"/>
	</linearGradient>
	<path style="fill:url(#SVGID_00000175299343759571510790000007183779083579132842_);" d="M19.9,12.2c0.3,0,0.5-0.2,0.5-0.5
		c0-0.3-0.2-0.5-0.5-0.5s-0.5,0.2-0.5,0.5C19.4,11.9,19.6,12.2,19.9,12.2z"/>
	
		<linearGradient id="SVGID_00000026877755753959995340000011159679681044455041_" gradientUnits="userSpaceOnUse" x1="30.7188" y1="49.674" x2="30.7188" y2="25.8174" gradientTransform="matrix(1 0 0 -1 -8.3622 60.8347)">
		<stop  offset="0" style="stop-color:#1F90FF;stop-opacity:0"/>
		<stop  offset="1" style="stop-color:#1F90FF"/>
	</linearGradient>
	<path style="fill:url(#SVGID_00000026877755753959995340000011159679681044455041_);" d="M22.4,12.2c0.3,0,0.5-0.2,0.5-0.5
		c0-0.3-0.2-0.5-0.5-0.5s-0.5,0.2-0.5,0.5C21.9,11.9,22.1,12.2,22.4,12.2z"/>
	
		<linearGradient id="SVGID_00000017485625584001638340000000291435628467370400_" gradientUnits="userSpaceOnUse" x1="20.7188" y1="49.674" x2="20.7188" y2="25.8174" gradientTransform="matrix(1 0 0 -1 -8.3622 60.8347)">
		<stop  offset="0" style="stop-color:#1F90FF;stop-opacity:0"/>
		<stop  offset="1" style="stop-color:#1F90FF"/>
	</linearGradient>
	<path style="fill:url(#SVGID_00000017485625584001638340000000291435628467370400_);" d="M12.4,14.7c0.3,0,0.5-0.2,0.5-0.5
		c0-0.3-0.2-0.5-0.5-0.5s-0.5,0.2-0.5,0.5C11.9,14.4,12.1,14.7,12.4,14.7z"/>
	
		<linearGradient id="SVGID_00000003822080830882274280000008148141830364457364_" gradientUnits="userSpaceOnUse" x1="23.2188" y1="49.674" x2="23.2188" y2="25.8174" gradientTransform="matrix(1 0 0 -1 -8.3622 60.8347)">
		<stop  offset="0" style="stop-color:#1F90FF;stop-opacity:0"/>
		<stop  offset="1" style="stop-color:#1F90FF"/>
	</linearGradient>
	<path style="fill:url(#SVGID_00000003822080830882274280000008148141830364457364_);" d="M14.9,14.7c0.3,0,0.5-0.2,0.5-0.5
		c0-0.3-0.2-0.5-0.5-0.5s-0.5,0.2-0.5,0.5C14.4,14.4,14.6,14.7,14.9,14.7z"/>
	
		<linearGradient id="SVGID_00000100373554457236242680000018200887472959559591_" gradientUnits="userSpaceOnUse" x1="25.7188" y1="49.674" x2="25.7188" y2="25.8174" gradientTransform="matrix(1 0 0 -1 -8.3622 60.8347)">
		<stop  offset="0" style="stop-color:#1F90FF;stop-opacity:0"/>
		<stop  offset="1" style="stop-color:#1F90FF"/>
	</linearGradient>
	<path style="fill:url(#SVGID_00000100373554457236242680000018200887472959559591_);" d="M17.4,14.7c0.3,0,0.5-0.2,0.5-0.5
		c0-0.3-0.2-0.5-0.5-0.5s-0.5,0.2-0.5,0.5C16.9,14.4,17.1,14.7,17.4,14.7z"/>
	
		<linearGradient id="SVGID_00000013894314890474895060000016159259289596691586_" gradientUnits="userSpaceOnUse" x1="28.2188" y1="49.674" x2="28.2188" y2="25.8174" gradientTransform="matrix(1 0 0 -1 -8.3622 60.8347)">
		<stop  offset="0" style="stop-color:#1F90FF;stop-opacity:0"/>
		<stop  offset="1" style="stop-color:#1F90FF"/>
	</linearGradient>
	<path style="fill:url(#SVGID_00000013894314890474895060000016159259289596691586_);" d="M19.9,14.7c0.3,0,0.5-0.2,0.5-0.5
		c0-0.3-0.2-0.5-0.5-0.5s-0.5,0.2-0.5,0.5C19.4,14.4,19.6,14.7,19.9,14.7z"/>
	
		<linearGradient id="SVGID_00000009549477773806168150000016629013392939705993_" gradientUnits="userSpaceOnUse" x1="30.7188" y1="49.674" x2="30.7188" y2="25.8174" gradientTransform="matrix(1 0 0 -1 -8.3622 60.8347)">
		<stop  offset="0" style="stop-color:#1F90FF;stop-opacity:0"/>
		<stop  offset="1" style="stop-color:#1F90FF"/>
	</linearGradient>
	<path style="fill:url(#SVGID_00000009549477773806168150000016629013392939705993_);" d="M22.4,14.7c0.3,0,0.5-0.2,0.5-0.5
		c0-0.3-0.2-0.5-0.5-0.5s-0.5,0.2-0.5,0.5C21.9,14.4,22.1,14.7,22.4,14.7z"/>
	
		<linearGradient id="SVGID_00000114056404430646267360000007146368877765466557_" gradientUnits="userSpaceOnUse" x1="33.2188" y1="49.674" x2="33.2188" y2="25.8174" gradientTransform="matrix(1 0 0 -1 -8.3622 60.8347)">
		<stop  offset="0" style="stop-color:#1F90FF;stop-opacity:0"/>
		<stop  offset="1" style="stop-color:#1F90FF"/>
	</linearGradient>
	<path style="fill:url(#SVGID_00000114056404430646267360000007146368877765466557_);" d="M24.9,14.7c0.3,0,0.5-0.2,0.5-0.5
		c0-0.3-0.2-0.5-0.5-0.5s-0.5,0.2-0.5,0.5C24.4,14.4,24.6,14.7,24.9,14.7z"/>
	
		<linearGradient id="SVGID_00000127003138075097156340000004452306415528950953_" gradientUnits="userSpaceOnUse" x1="15.7188" y1="49.674" x2="15.7188" y2="25.8174" gradientTransform="matrix(1 0 0 -1 -8.3622 60.8347)">
		<stop  offset="0" style="stop-color:#1F90FF;stop-opacity:0"/>
		<stop  offset="1" style="stop-color:#1F90FF"/>
	</linearGradient>
	<path style="fill:url(#SVGID_00000127003138075097156340000004452306415528950953_);" d="M7.4,17.2c0.3,0,0.5-0.2,0.5-0.5
		c0-0.3-0.2-0.5-0.5-0.5c-0.3,0-0.5,0.2-0.5,0.5C6.9,16.9,7.1,17.2,7.4,17.2z"/>
	
		<linearGradient id="SVGID_00000047053726952673536620000000415613142577473458_" gradientUnits="userSpaceOnUse" x1="18.2188" y1="49.674" x2="18.2188" y2="25.8174" gradientTransform="matrix(1 0 0 -1 -8.3622 60.8347)">
		<stop  offset="0" style="stop-color:#1F90FF;stop-opacity:0"/>
		<stop  offset="1" style="stop-color:#1F90FF"/>
	</linearGradient>
	<path style="fill:url(#SVGID_00000047053726952673536620000000415613142577473458_);" d="M9.9,17.2c0.3,0,0.5-0.2,0.5-0.5
		c0-0.3-0.2-0.5-0.5-0.5c-0.3,0-0.5,0.2-0.5,0.5C9.3,17,9.6,17.2,9.9,17.2z"/>
	
		<linearGradient id="SVGID_00000085947084091812025540000016917152468895887787_" gradientUnits="userSpaceOnUse" x1="20.7188" y1="49.674" x2="20.7188" y2="25.8174" gradientTransform="matrix(1 0 0 -1 -8.3622 60.8347)">
		<stop  offset="0" style="stop-color:#1F90FF;stop-opacity:0"/>
		<stop  offset="1" style="stop-color:#1F90FF"/>
	</linearGradient>
	<path style="fill:url(#SVGID_00000085947084091812025540000016917152468895887787_);" d="M12.4,17.2c0.3,0,0.5-0.2,0.5-0.5
		c0-0.3-0.2-0.5-0.5-0.5s-0.5,0.2-0.5,0.5C11.8,17,12.1,17.2,12.4,17.2z"/>
	
		<linearGradient id="SVGID_00000163772469284292576440000014566915953889879715_" gradientUnits="userSpaceOnUse" x1="23.2188" y1="49.674" x2="23.2188" y2="25.8174" gradientTransform="matrix(1 0 0 -1 -8.3622 60.8347)">
		<stop  offset="0" style="stop-color:#1F90FF;stop-opacity:0"/>
		<stop  offset="1" style="stop-color:#1F90FF"/>
	</linearGradient>
	<path style="fill:url(#SVGID_00000163772469284292576440000014566915953889879715_);" d="M14.9,17.2c0.3,0,0.5-0.2,0.5-0.5
		c0-0.3-0.2-0.5-0.5-0.5c-0.3,0-0.5,0.2-0.5,0.5C14.3,17,14.6,17.2,14.9,17.2z"/>
	
		<linearGradient id="SVGID_00000118397956502299559010000009894637925058840734_" gradientUnits="userSpaceOnUse" x1="25.7188" y1="49.674" x2="25.7188" y2="25.8174" gradientTransform="matrix(1 0 0 -1 -8.3622 60.8347)">
		<stop  offset="0" style="stop-color:#1F90FF;stop-opacity:0"/>
		<stop  offset="1" style="stop-color:#1F90FF"/>
	</linearGradient>
	<path style="fill:url(#SVGID_00000118397956502299559010000009894637925058840734_);" d="M17.4,17.2c0.3,0,0.5-0.2,0.5-0.5
		c0-0.3-0.2-0.5-0.5-0.5s-0.5,0.2-0.5,0.5C16.8,17,17.1,17.2,17.4,17.2z"/>
	
		<linearGradient id="SVGID_00000142165637066752214960000017213975052296368279_" gradientUnits="userSpaceOnUse" x1="28.2188" y1="49.674" x2="28.2188" y2="25.8174" gradientTransform="matrix(1 0 0 -1 -8.3622 60.8347)">
		<stop  offset="0" style="stop-color:#1F90FF;stop-opacity:0"/>
		<stop  offset="1" style="stop-color:#1F90FF"/>
	</linearGradient>
	<path style="fill:url(#SVGID_00000142165637066752214960000017213975052296368279_);" d="M19.9,17.2c0.3,0,0.5-0.2,0.5-0.5
		c0-0.3-0.2-0.5-0.5-0.5s-0.5,0.2-0.5,0.5C19.3,17,19.6,17.2,19.9,17.2z"/>
	
		<linearGradient id="SVGID_00000057130576347285852000000012861699459618453150_" gradientUnits="userSpaceOnUse" x1="30.7188" y1="49.674" x2="30.7188" y2="25.8174" gradientTransform="matrix(1 0 0 -1 -8.3622 60.8347)">
		<stop  offset="0" style="stop-color:#1F90FF;stop-opacity:0"/>
		<stop  offset="1" style="stop-color:#1F90FF"/>
	</linearGradient>
	<path style="fill:url(#SVGID_00000057130576347285852000000012861699459618453150_);" d="M22.4,17.2c0.3,0,0.5-0.2,0.5-0.5
		c0-0.3-0.2-0.5-0.5-0.5s-0.5,0.2-0.5,0.5C21.8,17,22.1,17.2,22.4,17.2z"/>
	
		<linearGradient id="SVGID_00000152986152136145045230000011999446392352344451_" gradientUnits="userSpaceOnUse" x1="33.2188" y1="49.674" x2="33.2188" y2="25.8174" gradientTransform="matrix(1 0 0 -1 -8.3622 60.8347)">
		<stop  offset="0" style="stop-color:#1F90FF;stop-opacity:0"/>
		<stop  offset="1" style="stop-color:#1F90FF"/>
	</linearGradient>
	<path style="fill:url(#SVGID_00000152986152136145045230000011999446392352344451_);" d="M24.9,17.2c0.3,0,0.5-0.2,0.5-0.5
		c0-0.3-0.2-0.5-0.5-0.5s-0.5,0.2-0.5,0.5C24.3,17,24.6,17.2,24.9,17.2z"/>
	
		<linearGradient id="SVGID_00000119817622073550967920000015266951998529447313_" gradientUnits="userSpaceOnUse" x1="35.7188" y1="49.674" x2="35.7188" y2="25.8174" gradientTransform="matrix(1 0 0 -1 -8.3622 60.8347)">
		<stop  offset="0" style="stop-color:#1F90FF;stop-opacity:0"/>
		<stop  offset="1" style="stop-color:#1F90FF"/>
	</linearGradient>
	<path style="fill:url(#SVGID_00000119817622073550967920000015266951998529447313_);" d="M27.4,17.2c0.3,0,0.5-0.2,0.5-0.5
		c0-0.3-0.2-0.5-0.5-0.5s-0.5,0.2-0.5,0.5C26.8,17,27.1,17.2,27.4,17.2z"/>
	
		<linearGradient id="SVGID_00000047780160145977579110000008853506503889386431_" gradientUnits="userSpaceOnUse" x1="15.7188" y1="49.674" x2="15.7188" y2="25.8174" gradientTransform="matrix(1 0 0 -1 -8.3622 60.8347)">
		<stop  offset="0" style="stop-color:#1F90FF;stop-opacity:0"/>
		<stop  offset="1" style="stop-color:#1F90FF"/>
	</linearGradient>
	<path style="fill:url(#SVGID_00000047780160145977579110000008853506503889386431_);" d="M7.4,19.7c0.3,0,0.6-0.3,0.6-0.6
		s-0.3-0.6-0.6-0.6c-0.3,0-0.6,0.3-0.6,0.6S7,19.7,7.4,19.7z"/>
	
		<linearGradient id="SVGID_00000146464014289395876070000002369810591342808479_" gradientUnits="userSpaceOnUse" x1="18.2188" y1="49.674" x2="18.2188" y2="25.8174" gradientTransform="matrix(1 0 0 -1 -8.3622 60.8347)">
		<stop  offset="0" style="stop-color:#1F90FF;stop-opacity:0"/>
		<stop  offset="1" style="stop-color:#1F90FF"/>
	</linearGradient>
	<path style="fill:url(#SVGID_00000146464014289395876070000002369810591342808479_);" d="M9.9,19.7c0.3,0,0.6-0.3,0.6-0.6
		s-0.3-0.6-0.6-0.6c-0.3,0-0.6,0.3-0.6,0.6S9.5,19.7,9.9,19.7z"/>
	
		<linearGradient id="SVGID_00000157990082459960701860000002815019868446307513_" gradientUnits="userSpaceOnUse" x1="20.7188" y1="49.674" x2="20.7188" y2="25.8174" gradientTransform="matrix(1 0 0 -1 -8.3622 60.8347)">
		<stop  offset="0" style="stop-color:#1F90FF;stop-opacity:0"/>
		<stop  offset="1" style="stop-color:#1F90FF"/>
	</linearGradient>
	<path style="fill:url(#SVGID_00000157990082459960701860000002815019868446307513_);" d="M12.4,19.7c0.3,0,0.6-0.3,0.6-0.6
		s-0.3-0.6-0.6-0.6s-0.6,0.3-0.6,0.6S12,19.7,12.4,19.7z"/>
	
		<linearGradient id="SVGID_00000007412642048537734300000002110103717271048862_" gradientUnits="userSpaceOnUse" x1="23.2188" y1="49.674" x2="23.2188" y2="25.8174" gradientTransform="matrix(1 0 0 -1 -8.3622 60.8347)">
		<stop  offset="0" style="stop-color:#1F90FF;stop-opacity:0"/>
		<stop  offset="1" style="stop-color:#1F90FF"/>
	</linearGradient>
	<path style="fill:url(#SVGID_00000007412642048537734300000002110103717271048862_);" d="M14.9,19.7c0.3,0,0.6-0.3,0.6-0.6
		s-0.3-0.6-0.6-0.6s-0.6,0.3-0.6,0.6S14.5,19.7,14.9,19.7z"/>
	
		<linearGradient id="SVGID_00000181794763624197597120000010865898365788234681_" gradientUnits="userSpaceOnUse" x1="25.7188" y1="49.674" x2="25.7188" y2="25.8174" gradientTransform="matrix(1 0 0 -1 -8.3622 60.8347)">
		<stop  offset="0" style="stop-color:#1F90FF;stop-opacity:0"/>
		<stop  offset="1" style="stop-color:#1F90FF"/>
	</linearGradient>
	<path style="fill:url(#SVGID_00000181794763624197597120000010865898365788234681_);" d="M17.4,19.7c0.3,0,0.6-0.3,0.6-0.6
		s-0.3-0.6-0.6-0.6s-0.6,0.3-0.6,0.6S17,19.7,17.4,19.7z"/>
	
		<linearGradient id="SVGID_00000071519080713900706620000006098925472836424874_" gradientUnits="userSpaceOnUse" x1="28.2188" y1="49.674" x2="28.2188" y2="25.8174" gradientTransform="matrix(1 0 0 -1 -8.3622 60.8347)">
		<stop  offset="0" style="stop-color:#1F90FF;stop-opacity:0"/>
		<stop  offset="1" style="stop-color:#1F90FF"/>
	</linearGradient>
	<path style="fill:url(#SVGID_00000071519080713900706620000006098925472836424874_);" d="M19.9,19.7c0.3,0,0.6-0.3,0.6-0.6
		s-0.3-0.6-0.6-0.6s-0.6,0.3-0.6,0.6S19.5,19.7,19.9,19.7z"/>
	
		<linearGradient id="SVGID_00000110468361479992385040000005608049775073571472_" gradientUnits="userSpaceOnUse" x1="30.7188" y1="49.674" x2="30.7188" y2="25.8174" gradientTransform="matrix(1 0 0 -1 -8.3622 60.8347)">
		<stop  offset="0" style="stop-color:#1F90FF;stop-opacity:0"/>
		<stop  offset="1" style="stop-color:#1F90FF"/>
	</linearGradient>
	<path style="fill:url(#SVGID_00000110468361479992385040000005608049775073571472_);" d="M22.4,19.7c0.3,0,0.6-0.3,0.6-0.6
		s-0.3-0.6-0.6-0.6s-0.6,0.3-0.6,0.6S22,19.7,22.4,19.7z"/>
	
		<linearGradient id="SVGID_00000100377648961040045130000010757908037649341832_" gradientUnits="userSpaceOnUse" x1="33.2188" y1="49.674" x2="33.2188" y2="25.8174" gradientTransform="matrix(1 0 0 -1 -8.3622 60.8347)">
		<stop  offset="0" style="stop-color:#1F90FF;stop-opacity:0"/>
		<stop  offset="1" style="stop-color:#1F90FF"/>
	</linearGradient>
	<path style="fill:url(#SVGID_00000100377648961040045130000010757908037649341832_);" d="M24.9,19.7c0.3,0,0.6-0.3,0.6-0.6
		s-0.3-0.6-0.6-0.6s-0.6,0.3-0.6,0.6S24.5,19.7,24.9,19.7z"/>
	
		<linearGradient id="SVGID_00000001635016384568901590000001724673526249458821_" gradientUnits="userSpaceOnUse" x1="35.7188" y1="49.674" x2="35.7188" y2="25.8174" gradientTransform="matrix(1 0 0 -1 -8.3622 60.8347)">
		<stop  offset="0" style="stop-color:#1F90FF;stop-opacity:0"/>
		<stop  offset="1" style="stop-color:#1F90FF"/>
	</linearGradient>
	<path style="fill:url(#SVGID_00000001635016384568901590000001724673526249458821_);" d="M27.4,19.7c0.3,0,0.6-0.3,0.6-0.6
		s-0.3-0.6-0.6-0.6s-0.6,0.3-0.6,0.6S27,19.7,27.4,19.7z"/>
	
		<linearGradient id="SVGID_00000083770247893028570700000010474701531605792413_" gradientUnits="userSpaceOnUse" x1="38.2188" y1="49.674" x2="38.2188" y2="25.8174" gradientTransform="matrix(1 0 0 -1 -8.3622 60.8347)">
		<stop  offset="0" style="stop-color:#1F90FF;stop-opacity:0"/>
		<stop  offset="1" style="stop-color:#1F90FF"/>
	</linearGradient>
	<path style="fill:url(#SVGID_00000083770247893028570700000010474701531605792413_);" d="M29.9,19.7c0.3,0,0.6-0.3,0.6-0.6
		s-0.3-0.6-0.6-0.6s-0.6,0.3-0.6,0.6S29.5,19.7,29.9,19.7z"/>
	
		<linearGradient id="SVGID_00000037686092161723876280000009338800654953928347_" gradientUnits="userSpaceOnUse" x1="15.7188" y1="49.674" x2="15.7188" y2="25.8174" gradientTransform="matrix(1 0 0 -1 -8.3622 60.8347)">
		<stop  offset="0" style="stop-color:#1F90FF;stop-opacity:0"/>
		<stop  offset="1" style="stop-color:#1F90FF"/>
	</linearGradient>
	<path style="fill:url(#SVGID_00000037686092161723876280000009338800654953928347_);" d="M7.4,22.3C7.7,22.3,8,22,8,21.7
		C8,21.3,7.7,21,7.4,21c-0.3,0-0.6,0.3-0.6,0.6C6.7,22,7,22.3,7.4,22.3z"/>
	
		<linearGradient id="SVGID_00000000191138842359842610000000592534175765562764_" gradientUnits="userSpaceOnUse" x1="18.2188" y1="49.674" x2="18.2188" y2="25.8174" gradientTransform="matrix(1 0 0 -1 -8.3622 60.8347)">
		<stop  offset="0" style="stop-color:#1F90FF;stop-opacity:0"/>
		<stop  offset="1" style="stop-color:#1F90FF"/>
	</linearGradient>
	<path style="fill:url(#SVGID_00000000191138842359842610000000592534175765562764_);" d="M9.9,22.3c0.3,0,0.6-0.3,0.6-0.6
		S10.2,21,9.9,21c-0.3,0-0.6,0.3-0.6,0.6S9.5,22.3,9.9,22.3z"/>
	
		<linearGradient id="SVGID_00000048464173926520405090000004092311253921536929_" gradientUnits="userSpaceOnUse" x1="20.7188" y1="49.674" x2="20.7188" y2="25.8174" gradientTransform="matrix(1 0 0 -1 -8.3622 60.8347)">
		<stop  offset="0" style="stop-color:#1F90FF;stop-opacity:0"/>
		<stop  offset="1" style="stop-color:#1F90FF"/>
	</linearGradient>
	<path style="fill:url(#SVGID_00000048464173926520405090000004092311253921536929_);" d="M12.4,22.3c0.3,0,0.6-0.3,0.6-0.6
		S12.7,21,12.4,21c-0.3,0-0.6,0.3-0.6,0.6S12,22.3,12.4,22.3z"/>
	
		<linearGradient id="SVGID_00000101783127633000915270000014386390857646352830_" gradientUnits="userSpaceOnUse" x1="23.2188" y1="49.674" x2="23.2188" y2="25.8174" gradientTransform="matrix(1 0 0 -1 -8.3622 60.8347)">
		<stop  offset="0" style="stop-color:#1F90FF;stop-opacity:0"/>
		<stop  offset="1" style="stop-color:#1F90FF"/>
	</linearGradient>
	<path style="fill:url(#SVGID_00000101783127633000915270000014386390857646352830_);" d="M14.9,22.3c0.3,0,0.6-0.3,0.6-0.6
		S15.2,21,14.9,21c-0.3,0-0.6,0.3-0.6,0.6S14.5,22.3,14.9,22.3z"/>
	
		<linearGradient id="SVGID_00000054260123235105151250000006329459212304399232_" gradientUnits="userSpaceOnUse" x1="25.7188" y1="49.674" x2="25.7188" y2="25.8174" gradientTransform="matrix(1 0 0 -1 -8.3622 60.8347)">
		<stop  offset="0" style="stop-color:#1F90FF;stop-opacity:0"/>
		<stop  offset="1" style="stop-color:#1F90FF"/>
	</linearGradient>
	<path style="fill:url(#SVGID_00000054260123235105151250000006329459212304399232_);" d="M17.4,22.3c0.3,0,0.6-0.3,0.6-0.6
		S17.7,21,17.4,21s-0.6,0.3-0.6,0.6S17,22.3,17.4,22.3z"/>
	
		<linearGradient id="SVGID_00000002385796780193123720000005022619159395513245_" gradientUnits="userSpaceOnUse" x1="28.2188" y1="49.674" x2="28.2188" y2="25.8174" gradientTransform="matrix(1 0 0 -1 -8.3622 60.8347)">
		<stop  offset="0" style="stop-color:#1F90FF;stop-opacity:0"/>
		<stop  offset="1" style="stop-color:#1F90FF"/>
	</linearGradient>
	<path style="fill:url(#SVGID_00000002385796780193123720000005022619159395513245_);" d="M19.9,22.3c0.3,0,0.6-0.3,0.6-0.6
		S20.2,21,19.9,21s-0.6,0.3-0.6,0.6S19.5,22.3,19.9,22.3z"/>
	
		<linearGradient id="SVGID_00000144332031917728563680000003759539458029837491_" gradientUnits="userSpaceOnUse" x1="30.7188" y1="49.674" x2="30.7188" y2="25.8174" gradientTransform="matrix(1 0 0 -1 -8.3622 60.8347)">
		<stop  offset="0" style="stop-color:#1F90FF;stop-opacity:0"/>
		<stop  offset="1" style="stop-color:#1F90FF"/>
	</linearGradient>
	<path style="fill:url(#SVGID_00000144332031917728563680000003759539458029837491_);" d="M22.4,22.3c0.3,0,0.6-0.3,0.6-0.6
		c0-0.3-0.3-0.6-0.6-0.6s-0.6,0.3-0.6,0.6C21.7,22,22,22.3,22.4,22.3z"/>
	
		<linearGradient id="SVGID_00000088094388630598156280000016460198304370390697_" gradientUnits="userSpaceOnUse" x1="33.2188" y1="49.674" x2="33.2188" y2="25.8174" gradientTransform="matrix(1 0 0 -1 -8.3622 60.8347)">
		<stop  offset="0" style="stop-color:#1F90FF;stop-opacity:0"/>
		<stop  offset="1" style="stop-color:#1F90FF"/>
	</linearGradient>
	<path style="fill:url(#SVGID_00000088094388630598156280000016460198304370390697_);" d="M24.9,22.3c0.3,0,0.6-0.3,0.6-0.6
		S25.2,21,24.9,21s-0.6,0.3-0.6,0.6S24.5,22.3,24.9,22.3z"/>
	
		<linearGradient id="SVGID_00000044148722630452630560000017872049565160909997_" gradientUnits="userSpaceOnUse" x1="35.7188" y1="49.674" x2="35.7188" y2="25.8174" gradientTransform="matrix(1 0 0 -1 -8.3622 60.8347)">
		<stop  offset="0" style="stop-color:#1F90FF;stop-opacity:0"/>
		<stop  offset="1" style="stop-color:#1F90FF"/>
	</linearGradient>
	<path style="fill:url(#SVGID_00000044148722630452630560000017872049565160909997_);" d="M27.4,22.3c0.3,0,0.6-0.3,0.6-0.6
		c0-0.3-0.3-0.6-0.6-0.6s-0.6,0.3-0.6,0.6C26.7,22,27,22.3,27.4,22.3z"/>
	
		<linearGradient id="SVGID_00000001653078810486304900000016888739482269005244_" gradientUnits="userSpaceOnUse" x1="38.2188" y1="49.674" x2="38.2188" y2="25.8174" gradientTransform="matrix(1 0 0 -1 -8.3622 60.8347)">
		<stop  offset="0" style="stop-color:#1F90FF;stop-opacity:0"/>
		<stop  offset="1" style="stop-color:#1F90FF"/>
	</linearGradient>
	<path style="fill:url(#SVGID_00000001653078810486304900000016888739482269005244_);" d="M29.9,22.3c0.3,0,0.6-0.3,0.6-0.6
		c0-0.3-0.3-0.6-0.6-0.6s-0.6,0.3-0.6,0.6C29.2,22,29.5,22.3,29.9,22.3z"/>
	
		<linearGradient id="SVGID_00000148622373194679902300000016796441434576116117_" gradientUnits="userSpaceOnUse" x1="15.7188" y1="49.674" x2="15.7188" y2="25.8174" gradientTransform="matrix(1 0 0 -1 -8.3622 60.8347)">
		<stop  offset="0" style="stop-color:#1F90FF;stop-opacity:0"/>
		<stop  offset="1" style="stop-color:#1F90FF"/>
	</linearGradient>
	<path style="fill:url(#SVGID_00000148622373194679902300000016796441434576116117_);" d="M7.4,24.8c0.4,0,0.7-0.3,0.7-0.7
		s-0.3-0.7-0.7-0.7c-0.4,0-0.7,0.3-0.7,0.7S7,24.8,7.4,24.8z"/>
	
		<linearGradient id="SVGID_00000090992147339237826030000012890311919584892345_" gradientUnits="userSpaceOnUse" x1="18.2188" y1="49.674" x2="18.2188" y2="25.8174" gradientTransform="matrix(1 0 0 -1 -8.3622 60.8347)">
		<stop  offset="0" style="stop-color:#1F90FF;stop-opacity:0"/>
		<stop  offset="1" style="stop-color:#1F90FF"/>
	</linearGradient>
	<path style="fill:url(#SVGID_00000090992147339237826030000012890311919584892345_);" d="M9.9,24.8c0.4,0,0.7-0.3,0.7-0.7
		c0-0.4-0.3-0.7-0.7-0.7c-0.4,0-0.7,0.3-0.7,0.7C9.2,24.5,9.5,24.8,9.9,24.8z"/>
	
		<linearGradient id="SVGID_00000008842257203518566020000002412797804832425141_" gradientUnits="userSpaceOnUse" x1="20.7188" y1="49.674" x2="20.7188" y2="25.8174" gradientTransform="matrix(1 0 0 -1 -8.3622 60.8347)">
		<stop  offset="0" style="stop-color:#1F90FF;stop-opacity:0"/>
		<stop  offset="1" style="stop-color:#1F90FF"/>
	</linearGradient>
	<path style="fill:url(#SVGID_00000008842257203518566020000002412797804832425141_);" d="M12.4,24.8c0.4,0,0.7-0.3,0.7-0.7
		c0-0.4-0.3-0.7-0.7-0.7c-0.4,0-0.7,0.3-0.7,0.7C11.7,24.5,12,24.8,12.4,24.8z"/>
	
		<linearGradient id="SVGID_00000087386642231485602060000012260886631478130609_" gradientUnits="userSpaceOnUse" x1="23.2188" y1="49.674" x2="23.2188" y2="25.8174" gradientTransform="matrix(1 0 0 -1 -8.3622 60.8347)">
		<stop  offset="0" style="stop-color:#1F90FF;stop-opacity:0"/>
		<stop  offset="1" style="stop-color:#1F90FF"/>
	</linearGradient>
	<path style="fill:url(#SVGID_00000087386642231485602060000012260886631478130609_);" d="M14.9,24.8c0.4,0,0.7-0.3,0.7-0.7
		s-0.3-0.7-0.7-0.7s-0.7,0.3-0.7,0.7S14.5,24.8,14.9,24.8z"/>
	
		<linearGradient id="SVGID_00000149375206762877399060000004132595003945807804_" gradientUnits="userSpaceOnUse" x1="25.7188" y1="49.674" x2="25.7188" y2="25.8174" gradientTransform="matrix(1 0 0 -1 -8.3622 60.8347)">
		<stop  offset="0" style="stop-color:#1F90FF;stop-opacity:0"/>
		<stop  offset="1" style="stop-color:#1F90FF"/>
	</linearGradient>
	<path style="fill:url(#SVGID_00000149375206762877399060000004132595003945807804_);" d="M17.4,24.8c0.4,0,0.7-0.3,0.7-0.7
		c0-0.4-0.3-0.7-0.7-0.7c-0.4,0-0.7,0.3-0.7,0.7C16.7,24.5,17,24.8,17.4,24.8z"/>
	
		<linearGradient id="SVGID_00000124843950819526322070000015890459269226402689_" gradientUnits="userSpaceOnUse" x1="28.2188" y1="49.674" x2="28.2188" y2="25.8174" gradientTransform="matrix(1 0 0 -1 -8.3622 60.8347)">
		<stop  offset="0" style="stop-color:#1F90FF;stop-opacity:0"/>
		<stop  offset="1" style="stop-color:#1F90FF"/>
	</linearGradient>
	<path style="fill:url(#SVGID_00000124843950819526322070000015890459269226402689_);" d="M19.9,24.8c0.4,0,0.7-0.3,0.7-0.7
		c0-0.4-0.3-0.7-0.7-0.7c-0.4,0-0.7,0.3-0.7,0.7C19.2,24.5,19.5,24.8,19.9,24.8z"/>
	
		<linearGradient id="SVGID_00000176734290838175486880000018388720420749968314_" gradientUnits="userSpaceOnUse" x1="30.7188" y1="49.674" x2="30.7188" y2="25.8174" gradientTransform="matrix(1 0 0 -1 -8.3622 60.8347)">
		<stop  offset="0" style="stop-color:#1F90FF;stop-opacity:0"/>
		<stop  offset="1" style="stop-color:#1F90FF"/>
	</linearGradient>
	<path style="fill:url(#SVGID_00000176734290838175486880000018388720420749968314_);" d="M22.4,24.8c0.4,0,0.7-0.3,0.7-0.7
		c0-0.4-0.3-0.7-0.7-0.7c-0.4,0-0.7,0.3-0.7,0.7C21.7,24.5,22,24.8,22.4,24.8z"/>
	
		<linearGradient id="SVGID_00000087390673839098670720000006168049189607829932_" gradientUnits="userSpaceOnUse" x1="33.2188" y1="49.674" x2="33.2188" y2="25.8174" gradientTransform="matrix(1 0 0 -1 -8.3622 60.8347)">
		<stop  offset="0" style="stop-color:#1F90FF;stop-opacity:0"/>
		<stop  offset="1" style="stop-color:#1F90FF"/>
	</linearGradient>
	<path style="fill:url(#SVGID_00000087390673839098670720000006168049189607829932_);" d="M24.9,24.8c0.4,0,0.7-0.3,0.7-0.7
		c0-0.4-0.3-0.7-0.7-0.7c-0.4,0-0.7,0.3-0.7,0.7C24.2,24.5,24.5,24.8,24.9,24.8z"/>
	
		<linearGradient id="SVGID_00000030488206202944106140000002537689104507891376_" gradientUnits="userSpaceOnUse" x1="35.7188" y1="49.674" x2="35.7188" y2="25.8174" gradientTransform="matrix(1 0 0 -1 -8.3622 60.8347)">
		<stop  offset="0" style="stop-color:#1F90FF;stop-opacity:0"/>
		<stop  offset="1" style="stop-color:#1F90FF"/>
	</linearGradient>
	<path style="fill:url(#SVGID_00000030488206202944106140000002537689104507891376_);" d="M27.4,24.8c0.4,0,0.7-0.3,0.7-0.7
		c0-0.4-0.3-0.7-0.7-0.7c-0.4,0-0.7,0.3-0.7,0.7C26.7,24.5,27,24.8,27.4,24.8z"/>
	
		<linearGradient id="SVGID_00000119084911216130828070000005537298272608572598_" gradientUnits="userSpaceOnUse" x1="38.2188" y1="49.674" x2="38.2188" y2="25.8174" gradientTransform="matrix(1 0 0 -1 -8.3622 60.8347)">
		<stop  offset="0" style="stop-color:#1F90FF;stop-opacity:0"/>
		<stop  offset="1" style="stop-color:#1F90FF"/>
	</linearGradient>
	<path style="fill:url(#SVGID_00000119084911216130828070000005537298272608572598_);" d="M29.9,24.8c0.4,0,0.7-0.3,0.7-0.7
		c0-0.4-0.3-0.7-0.7-0.7c-0.4,0-0.7,0.3-0.7,0.7C29.2,24.5,29.5,24.8,29.9,24.8z"/>
	
		<linearGradient id="SVGID_00000153667165806077157620000008384368875186355586_" gradientUnits="userSpaceOnUse" x1="15.7188" y1="49.674" x2="15.7188" y2="25.8174" gradientTransform="matrix(1 0 0 -1 -8.3622 60.8347)">
		<stop  offset="0" style="stop-color:#1F90FF;stop-opacity:0"/>
		<stop  offset="1" style="stop-color:#1F90FF"/>
	</linearGradient>
	<path style="fill:url(#SVGID_00000153667165806077157620000008384368875186355586_);" d="M7.4,27.4c0.4,0,0.7-0.3,0.7-0.7
		c0-0.4-0.3-0.7-0.7-0.7c-0.4,0-0.7,0.3-0.7,0.7C6.6,27.1,7,27.4,7.4,27.4z"/>
	
		<linearGradient id="SVGID_00000160873194990417007270000010867681199597367955_" gradientUnits="userSpaceOnUse" x1="18.2188" y1="49.674" x2="18.2188" y2="25.8174" gradientTransform="matrix(1 0 0 -1 -8.3622 60.8347)">
		<stop  offset="0" style="stop-color:#1F90FF;stop-opacity:0"/>
		<stop  offset="1" style="stop-color:#1F90FF"/>
	</linearGradient>
	<path style="fill:url(#SVGID_00000160873194990417007270000010867681199597367955_);" d="M9.9,27.4c0.4,0,0.7-0.3,0.7-0.7
		c0-0.4-0.3-0.7-0.7-0.7c-0.4,0-0.7,0.3-0.7,0.7C9.1,27.1,9.5,27.4,9.9,27.4z"/>
	
		<linearGradient id="SVGID_00000041278577384981600490000014842253682004487326_" gradientUnits="userSpaceOnUse" x1="20.7188" y1="49.674" x2="20.7188" y2="25.8174" gradientTransform="matrix(1 0 0 -1 -8.3622 60.8347)">
		<stop  offset="0" style="stop-color:#1F90FF;stop-opacity:0"/>
		<stop  offset="1" style="stop-color:#1F90FF"/>
	</linearGradient>
	<path style="fill:url(#SVGID_00000041278577384981600490000014842253682004487326_);" d="M12.4,27.4c0.4,0,0.7-0.3,0.7-0.7
		c0-0.4-0.3-0.7-0.7-0.7s-0.7,0.3-0.7,0.7C11.6,27.1,12,27.4,12.4,27.4z"/>
	
		<linearGradient id="SVGID_00000072989917716181523110000013698313328734898578_" gradientUnits="userSpaceOnUse" x1="30.7188" y1="49.674" x2="30.7188" y2="25.8174" gradientTransform="matrix(1 0 0 -1 -8.3622 60.8347)">
		<stop  offset="0" style="stop-color:#1F90FF;stop-opacity:0"/>
		<stop  offset="1" style="stop-color:#1F90FF"/>
	</linearGradient>
	<path style="fill:url(#SVGID_00000072989917716181523110000013698313328734898578_);" d="M22.4,27.4c0.4,0,0.7-0.3,0.7-0.7
		c0-0.4-0.3-0.7-0.7-0.7s-0.7,0.3-0.7,0.7C21.6,27.1,22,27.4,22.4,27.4z"/>
	
		<linearGradient id="SVGID_00000161603627131739578650000013956123293394566290_" gradientUnits="userSpaceOnUse" x1="33.2188" y1="49.674" x2="33.2188" y2="25.8174" gradientTransform="matrix(1 0 0 -1 -8.3622 60.8347)">
		<stop  offset="0" style="stop-color:#1F90FF;stop-opacity:0"/>
		<stop  offset="1" style="stop-color:#1F90FF"/>
	</linearGradient>
	<path style="fill:url(#SVGID_00000161603627131739578650000013956123293394566290_);" d="M24.9,27.4c0.4,0,0.7-0.3,0.7-0.7
		c0-0.4-0.3-0.7-0.7-0.7s-0.7,0.3-0.7,0.7C24.1,27.1,24.5,27.4,24.9,27.4z"/>
	
		<linearGradient id="SVGID_00000126286911540012621000000004199079670126535347_" gradientUnits="userSpaceOnUse" x1="35.7188" y1="49.674" x2="35.7188" y2="25.8174" gradientTransform="matrix(1 0 0 -1 -8.3622 60.8347)">
		<stop  offset="0" style="stop-color:#1F90FF;stop-opacity:0"/>
		<stop  offset="1" style="stop-color:#1F90FF"/>
	</linearGradient>
	<path style="fill:url(#SVGID_00000126286911540012621000000004199079670126535347_);" d="M27.4,27.4c0.4,0,0.7-0.3,0.7-0.7
		c0-0.4-0.3-0.7-0.7-0.7s-0.7,0.3-0.7,0.7C26.6,27.1,27,27.4,27.4,27.4z"/>
	
		<linearGradient id="SVGID_00000155846682324924373040000003621956882109440932_" gradientUnits="userSpaceOnUse" x1="38.2188" y1="49.674" x2="38.2188" y2="25.8174" gradientTransform="matrix(1 0 0 -1 -8.3622 60.8347)">
		<stop  offset="0" style="stop-color:#1F90FF;stop-opacity:0"/>
		<stop  offset="1" style="stop-color:#1F90FF"/>
	</linearGradient>
	<path style="fill:url(#SVGID_00000155846682324924373040000003621956882109440932_);" d="M29.9,27.4c0.4,0,0.7-0.3,0.7-0.7
		c0-0.4-0.3-0.7-0.7-0.7s-0.7,0.3-0.7,0.7C29.1,27.1,29.5,27.4,29.9,27.4z"/>
	
		<linearGradient id="SVGID_00000047059443795315031990000016022866658504597173_" gradientUnits="userSpaceOnUse" x1="15.7188" y1="49.674" x2="15.7188" y2="25.8174" gradientTransform="matrix(1 0 0 -1 -8.3622 60.8347)">
		<stop  offset="0" style="stop-color:#1F90FF;stop-opacity:0"/>
		<stop  offset="1" style="stop-color:#1F90FF"/>
	</linearGradient>
	<path style="fill:url(#SVGID_00000047059443795315031990000016022866658504597173_);" d="M7.4,29.9c0.4,0,0.8-0.3,0.8-0.8
		s-0.3-0.8-0.8-0.8c-0.4,0-0.8,0.3-0.8,0.8S6.9,29.9,7.4,29.9z"/>
	
		<linearGradient id="SVGID_00000089560406887435505830000003787926068944176513_" gradientUnits="userSpaceOnUse" x1="18.2188" y1="49.674" x2="18.2188" y2="25.8174" gradientTransform="matrix(1 0 0 -1 -8.3622 60.8347)">
		<stop  offset="0" style="stop-color:#1F90FF;stop-opacity:0"/>
		<stop  offset="1" style="stop-color:#1F90FF"/>
	</linearGradient>
	<path style="fill:url(#SVGID_00000089560406887435505830000003787926068944176513_);" d="M9.9,29.9c0.4,0,0.8-0.3,0.8-0.8
		s-0.3-0.8-0.8-0.8c-0.4,0-0.8,0.3-0.8,0.8S9.4,29.9,9.9,29.9z"/>
	
		<linearGradient id="SVGID_00000175287491372922146670000014717300072570214064_" gradientUnits="userSpaceOnUse" x1="20.7188" y1="49.674" x2="20.7188" y2="25.8174" gradientTransform="matrix(1 0 0 -1 -8.3622 60.8347)">
		<stop  offset="0" style="stop-color:#1F90FF;stop-opacity:0"/>
		<stop  offset="1" style="stop-color:#1F90FF"/>
	</linearGradient>
	<path style="fill:url(#SVGID_00000175287491372922146670000014717300072570214064_);" d="M12.4,29.9c0.4,0,0.8-0.3,0.8-0.8
		s-0.3-0.8-0.8-0.8c-0.4,0-0.8,0.3-0.8,0.8S11.9,29.9,12.4,29.9z"/>
	
		<linearGradient id="SVGID_00000018196732746128971040000009219714076822389161_" gradientUnits="userSpaceOnUse" x1="30.7188" y1="49.674" x2="30.7188" y2="25.8174" gradientTransform="matrix(1 0 0 -1 -8.3622 60.8347)">
		<stop  offset="0" style="stop-color:#1F90FF;stop-opacity:0"/>
		<stop  offset="1" style="stop-color:#1F90FF"/>
	</linearGradient>
	<path style="fill:url(#SVGID_00000018196732746128971040000009219714076822389161_);" d="M22.4,29.9c0.4,0,0.8-0.3,0.8-0.8
		s-0.3-0.8-0.8-0.8s-0.8,0.3-0.8,0.8S21.9,29.9,22.4,29.9z"/>
	
		<linearGradient id="SVGID_00000008835568791713308350000004522844552856910471_" gradientUnits="userSpaceOnUse" x1="33.2188" y1="49.674" x2="33.2188" y2="25.8174" gradientTransform="matrix(1 0 0 -1 -8.3622 60.8347)">
		<stop  offset="0" style="stop-color:#1F90FF;stop-opacity:0"/>
		<stop  offset="1" style="stop-color:#1F90FF"/>
	</linearGradient>
	<path style="fill:url(#SVGID_00000008835568791713308350000004522844552856910471_);" d="M24.9,29.9c0.4,0,0.8-0.3,0.8-0.8
		s-0.3-0.8-0.8-0.8s-0.8,0.3-0.8,0.8S24.4,29.9,24.9,29.9z"/>
	
		<linearGradient id="SVGID_00000098210885227341354460000018049274619892817329_" gradientUnits="userSpaceOnUse" x1="35.7188" y1="49.674" x2="35.7188" y2="25.8174" gradientTransform="matrix(1 0 0 -1 -8.3622 60.8347)">
		<stop  offset="0" style="stop-color:#1F90FF;stop-opacity:0"/>
		<stop  offset="1" style="stop-color:#1F90FF"/>
	</linearGradient>
	<path style="fill:url(#SVGID_00000098210885227341354460000018049274619892817329_);" d="M27.4,29.9c0.4,0,0.8-0.3,0.8-0.8
		s-0.3-0.8-0.8-0.8s-0.8,0.3-0.8,0.8S26.9,29.9,27.4,29.9z"/>
	
		<linearGradient id="SVGID_00000085219157251118589450000014340969812269147839_" gradientUnits="userSpaceOnUse" x1="38.2188" y1="49.674" x2="38.2188" y2="25.8174" gradientTransform="matrix(1 0 0 -1 -8.3622 60.8347)">
		<stop  offset="0" style="stop-color:#1F90FF;stop-opacity:0"/>
		<stop  offset="1" style="stop-color:#1F90FF"/>
	</linearGradient>
	<path style="fill:url(#SVGID_00000085219157251118589450000014340969812269147839_);" d="M29.9,29.9c0.4,0,0.8-0.3,0.8-0.8
		s-0.3-0.8-0.8-0.8s-0.8,0.3-0.8,0.8S29.4,29.9,29.9,29.9z"/>
	
		<linearGradient id="SVGID_00000124841210666742533390000013226352866946634382_" gradientUnits="userSpaceOnUse" x1="15.7188" y1="49.674" x2="15.7188" y2="25.8174" gradientTransform="matrix(1 0 0 -1 -8.3622 60.8347)">
		<stop  offset="0" style="stop-color:#1F90FF;stop-opacity:0"/>
		<stop  offset="1" style="stop-color:#1F90FF"/>
	</linearGradient>
	<path style="fill:url(#SVGID_00000124841210666742533390000013226352866946634382_);" d="M7.4,32.5c0.5,0,0.8-0.4,0.8-0.8
		c0-0.5-0.4-0.8-0.8-0.8s-0.8,0.4-0.8,0.8C6.5,32.1,6.9,32.5,7.4,32.5z"/>
	
		<linearGradient id="SVGID_00000045580631607994324200000011979965037407380925_" gradientUnits="userSpaceOnUse" x1="18.2187" y1="49.674" x2="18.2187" y2="25.8174" gradientTransform="matrix(1 0 0 -1 -8.3622 60.8347)">
		<stop  offset="0" style="stop-color:#1F90FF;stop-opacity:0"/>
		<stop  offset="1" style="stop-color:#1F90FF"/>
	</linearGradient>
	<path style="fill:url(#SVGID_00000045580631607994324200000011979965037407380925_);" d="M9.9,32.5c0.5,0,0.8-0.4,0.8-0.8
		c0-0.5-0.4-0.8-0.8-0.8S9,31.2,9,31.7C9,32.1,9.4,32.5,9.9,32.5z"/>
	
		<linearGradient id="SVGID_00000150820067470316289260000003383073248046553499_" gradientUnits="userSpaceOnUse" x1="20.7188" y1="49.674" x2="20.7188" y2="25.8174" gradientTransform="matrix(1 0 0 -1 -8.3622 60.8347)">
		<stop  offset="0" style="stop-color:#1F90FF;stop-opacity:0"/>
		<stop  offset="1" style="stop-color:#1F90FF"/>
	</linearGradient>
	<path style="fill:url(#SVGID_00000150820067470316289260000003383073248046553499_);" d="M12.4,32.5c0.5,0,0.8-0.4,0.8-0.8
		c0-0.5-0.4-0.8-0.8-0.8s-0.8,0.4-0.8,0.8C11.5,32.1,11.9,32.5,12.4,32.5z"/>
	
		<linearGradient id="SVGID_00000103260681356021268160000001637096262064385159_" gradientUnits="userSpaceOnUse" x1="30.7188" y1="49.674" x2="30.7188" y2="25.8174" gradientTransform="matrix(1 0 0 -1 -8.3622 60.8347)">
		<stop  offset="0" style="stop-color:#1F90FF;stop-opacity:0"/>
		<stop  offset="1" style="stop-color:#1F90FF"/>
	</linearGradient>
	<path style="fill:url(#SVGID_00000103260681356021268160000001637096262064385159_);" d="M22.4,32.5c0.5,0,0.8-0.4,0.8-0.8
		c0-0.5-0.4-0.8-0.8-0.8s-0.8,0.4-0.8,0.8C21.5,32.1,21.9,32.5,22.4,32.5z"/>
	
		<linearGradient id="SVGID_00000071534021825691037940000008821175036301301674_" gradientUnits="userSpaceOnUse" x1="33.2188" y1="49.674" x2="33.2188" y2="25.8174" gradientTransform="matrix(1 0 0 -1 -8.3622 60.8347)">
		<stop  offset="0" style="stop-color:#1F90FF;stop-opacity:0"/>
		<stop  offset="1" style="stop-color:#1F90FF"/>
	</linearGradient>
	<path style="fill:url(#SVGID_00000071534021825691037940000008821175036301301674_);" d="M24.9,32.5c0.5,0,0.8-0.4,0.8-0.8
		c0-0.5-0.4-0.8-0.8-0.8S24,31.2,24,31.7C24,32.1,24.4,32.5,24.9,32.5z"/>
	
		<linearGradient id="SVGID_00000068664306001491911280000016099848579763359390_" gradientUnits="userSpaceOnUse" x1="35.7188" y1="49.674" x2="35.7188" y2="25.8174" gradientTransform="matrix(1 0 0 -1 -8.3622 60.8347)">
		<stop  offset="0" style="stop-color:#1F90FF;stop-opacity:0"/>
		<stop  offset="1" style="stop-color:#1F90FF"/>
	</linearGradient>
	<path style="fill:url(#SVGID_00000068664306001491911280000016099848579763359390_);" d="M27.4,32.5c0.5,0,0.8-0.4,0.8-0.8
		c0-0.5-0.4-0.8-0.8-0.8s-0.8,0.4-0.8,0.8C26.5,32.1,26.9,32.5,27.4,32.5z"/>
	
		<linearGradient id="SVGID_00000011732179885529600130000017464099941705388950_" gradientUnits="userSpaceOnUse" x1="38.2188" y1="49.674" x2="38.2188" y2="25.8174" gradientTransform="matrix(1 0 0 -1 -8.3622 60.8347)">
		<stop  offset="0" style="stop-color:#1F90FF;stop-opacity:0"/>
		<stop  offset="1" style="stop-color:#1F90FF"/>
	</linearGradient>
	<path style="fill:url(#SVGID_00000011732179885529600130000017464099941705388950_);" d="M29.9,32.5c0.5,0,0.8-0.4,0.8-0.8
		c0-0.5-0.4-0.8-0.8-0.8S29,31.2,29,31.7C29,32.1,29.4,32.5,29.9,32.5z"/>
	
		<linearGradient id="SVGID_00000013158577031959435800000014081537686788448698_" gradientUnits="userSpaceOnUse" x1="15.7188" y1="49.674" x2="15.7188" y2="25.8174" gradientTransform="matrix(1 0 0 -1 -8.3622 60.8347)">
		<stop  offset="0" style="stop-color:#1F90FF;stop-opacity:0"/>
		<stop  offset="1" style="stop-color:#1F90FF"/>
	</linearGradient>
	<path style="fill:url(#SVGID_00000013158577031959435800000014081537686788448698_);" d="M7.4,34c0.5,0,0.9,0.6,0.9,0.1
		s-0.4-0.9-0.9-0.9c-0.5,0-0.9,0.4-0.9,0.9S6.9,34,7.4,34z"/>
	
		<linearGradient id="SVGID_00000095324346834255248550000003580763183315128722_" gradientUnits="userSpaceOnUse" x1="18.2188" y1="49.674" x2="18.2188" y2="25.8174" gradientTransform="matrix(1 0 0 -1 -8.3622 60.8347)">
		<stop  offset="0" style="stop-color:#1F90FF;stop-opacity:0"/>
		<stop  offset="1" style="stop-color:#1F90FF"/>
	</linearGradient>
	<path style="fill:url(#SVGID_00000095324346834255248550000003580763183315128722_);" d="M9.9,34c0.5,0,0.9,0.6,0.9,0.1
		s-0.4-0.9-0.9-0.9S9,33.7,9,34.2S9.4,34,9.9,34z"/>
	
		<linearGradient id="SVGID_00000133519149437263972520000017266349499781983390_" gradientUnits="userSpaceOnUse" x1="20.7188" y1="49.674" x2="20.7188" y2="25.8174" gradientTransform="matrix(1 0 0 -1 -8.3622 60.8347)">
		<stop  offset="0" style="stop-color:#1F90FF;stop-opacity:0"/>
		<stop  offset="1" style="stop-color:#1F90FF"/>
	</linearGradient>
	<path style="fill:url(#SVGID_00000133519149437263972520000017266349499781983390_);" d="M12.4,34c0.5,0,0.9,0.6,0.9,0.1
		s-0.4-0.9-0.9-0.9c-0.5,0-0.9,0.4-0.9,0.9S11.9,34,12.4,34z"/>
	
		<linearGradient id="SVGID_00000170967404103173074700000000928651019825940371_" gradientUnits="userSpaceOnUse" x1="30.7188" y1="49.674" x2="30.7188" y2="25.8174" gradientTransform="matrix(1 0 0 -1 -8.3622 60.8347)">
		<stop  offset="0" style="stop-color:#1F90FF;stop-opacity:0"/>
		<stop  offset="1" style="stop-color:#1F90FF"/>
	</linearGradient>
	<path style="fill:url(#SVGID_00000170967404103173074700000000928651019825940371_);" d="M22.4,34c0.5,0,0.9,0.6,0.9,0.1
		s-0.4-0.9-0.9-0.9s-0.9,0.4-0.9,0.9S21.9,34,22.4,34z"/>
	
		<linearGradient id="SVGID_00000183929488206280964410000008386444365883885456_" gradientUnits="userSpaceOnUse" x1="33.2188" y1="49.674" x2="33.2188" y2="25.8174" gradientTransform="matrix(1 0 0 -1 -8.3622 60.8347)">
		<stop  offset="0" style="stop-color:#1F90FF;stop-opacity:0"/>
		<stop  offset="1" style="stop-color:#1F90FF"/>
	</linearGradient>
	<path style="fill:url(#SVGID_00000183929488206280964410000008386444365883885456_);" d="M24.9,34c0.5,0,0.9,0.6,0.9,0.1
		s-0.4-0.9-0.9-0.9S24,33.7,24,34.2S24.4,34,24.9,34z"/>
	
		<linearGradient id="SVGID_00000053521485088145438560000010256139405017793413_" gradientUnits="userSpaceOnUse" x1="35.7188" y1="49.674" x2="35.7188" y2="25.8174" gradientTransform="matrix(1 0 0 -1 -8.3622 60.8347)">
		<stop  offset="0" style="stop-color:#1F90FF;stop-opacity:0"/>
		<stop  offset="1" style="stop-color:#1F90FF"/>
	</linearGradient>
	<path style="fill:url(#SVGID_00000053521485088145438560000010256139405017793413_);" d="M27.4,34c0.5,0,0.9,0.6,0.9,0.1
		s-0.4-0.9-0.9-0.9s-0.9,0.4-0.9,0.9S26.9,34,27.4,34z"/>
	
		<linearGradient id="SVGID_00000106129958083211596330000005869670418502847616_" gradientUnits="userSpaceOnUse" x1="38.1166" y1="49.674" x2="38.1166" y2="25.8174" gradientTransform="matrix(1 0 0 -1 -8.3622 60.8347)">
		<stop  offset="0" style="stop-color:#1F90FF;stop-opacity:0"/>
		<stop  offset="1" style="stop-color:#1F90FF"/>
	</linearGradient>
	<path style="fill:url(#SVGID_00000106129958083211596330000005869670418502847616_);" d="M29.9,34c0.5,0-0.1-0.8,0.6-0.3
		c0-0.5-0.2-0.3-0.6-0.3S29,33.7,29,34.2C29,34.6,29.4,34,29.9,34z"/>
	<path class="st77" d="M5.5,32.8v-15c0-0.5,0.2-0.9,0.6-1.2L18,7.5l11.9,9.2c0.4,0.3,0.6,0.7,0.6,1.2v15c0,0.8-0.7,1.5-1.5,1.5h-7.5
		v-7.5c0-0.8-0.7-1.5-1.5-1.5h-4c-0.8,0-1.5,0.7-1.5,1.5v7.5H7C6.2,34.3,5.5,33.7,5.5,32.8z"/>
	<path class="st78" d="M18.3,3.9L18,3.7l-0.3,0.2L2.6,15.7c-0.4,0.3-1.1,0.3-1.4-0.2c-0.3-0.4-0.3-1.1,0.2-1.4l15.4-12
		c0.7-0.6,1.7-0.6,2.5,0l15.4,12c0.4,0.3,0.5,1,0.2,1.4s-1,0.5-1.4,0.2L18.3,3.9z"/>
</g>
</svg>
